<svg width="45" height="45" viewBox="0 0 45 45" fill="none" xmlns="http://www.w3.org/2000/svg">
<path d="M34.6563 20.95H11.097C10.7994 20.95 10.5141 21.0681 10.3037 21.2785C10.0933 21.4889 9.9751 21.7743 9.9751 22.0718V27.6812C9.97731 29.568 10.6588 31.391 11.8948 32.8166C13.1309 34.2421 14.8389 35.175 16.7063 35.4446V36.6562C16.7063 36.9537 16.8245 37.2391 17.0349 37.4495C17.2453 37.6599 17.5307 37.7781 17.8282 37.7781H27.9251C28.2226 37.7781 28.508 37.6599 28.7184 37.4495C28.9288 37.2391 29.047 36.9537 29.047 36.6562V35.4446C30.9144 35.175 32.6224 34.2421 33.8585 32.8166C35.0945 31.391 35.776 29.568 35.7782 27.6812V22.0718C35.7782 21.7743 35.66 21.4889 35.4496 21.2785C35.2392 21.0681 34.9539 20.95 34.6563 20.95Z" fill="#352817"/>
<path d="M27.2392 17.5844C27.2392 17.8819 27.3574 18.1673 27.5678 18.3777C27.7782 18.588 28.0635 18.7062 28.3611 18.7062C28.6586 18.7062 28.944 18.588 29.1544 18.3777C29.3647 18.1673 29.4829 17.8819 29.4829 17.5844C29.4649 16.1048 28.9616 14.6721 28.0503 13.5064C27.5838 12.9741 27.2996 12.3066 27.2392 11.6014C27.195 11.2282 27.2305 10.8498 27.3432 10.4913C27.4559 10.1328 27.6434 9.80223 27.8932 9.52146C28.138 9.35216 28.3054 9.09257 28.3588 8.79981C28.4121 8.50705 28.3469 8.20509 28.1776 7.96037C28.0083 7.71564 27.7488 7.54819 27.456 7.49486C27.1632 7.44152 26.8613 7.50667 26.6166 7.67597C26.047 8.14875 25.6017 8.75349 25.3191 9.43763C25.0366 10.1218 24.9255 10.8646 24.9954 11.6014C25.0451 12.7537 25.4626 13.8597 26.1869 14.7572C26.845 15.5548 27.2157 16.5506 27.2392 17.5844Z" fill="#352817"/>
<path d="M22.7514 17.5844C22.7514 17.8819 22.8696 18.1673 23.08 18.3777C23.2904 18.588 23.5757 18.7062 23.8733 18.7062C24.1708 18.7062 24.4562 18.588 24.6666 18.3777C24.877 18.1673 24.9951 17.8819 24.9951 17.5844C24.9771 16.1048 24.4738 14.6721 23.5625 13.5064C23.096 12.9741 22.8118 12.3066 22.7514 11.6014C22.7072 11.2282 22.7427 10.8498 22.8554 10.4913C22.9682 10.1328 23.1556 9.80223 23.4055 9.52146C23.6502 9.35216 23.8176 9.09257 23.871 8.79981C23.9243 8.50705 23.8591 8.20509 23.6898 7.96037C23.5205 7.71564 23.261 7.54819 22.9682 7.49486C22.6754 7.44152 22.3735 7.50667 22.1288 7.67597C21.5592 8.14875 21.1139 8.75349 20.8313 9.43763C20.5488 10.1218 20.4377 10.8646 20.5076 11.6014C20.5573 12.7537 20.9748 13.8597 21.6991 14.7572C22.3572 15.5548 22.7279 16.5506 22.7514 17.5844Z" fill="#352817"/>
<path d="M18.2641 17.5844C18.2641 17.8819 18.3823 18.1673 18.5927 18.3777C18.8031 18.588 19.0884 18.7062 19.386 18.7062C19.6835 18.7062 19.9689 18.588 20.1793 18.3777C20.3896 18.1673 20.5078 17.8819 20.5078 17.5844C20.4898 16.1048 19.9865 14.6721 19.0752 13.5064C18.6087 12.9741 18.3245 12.3066 18.2641 11.6014C18.2199 11.2282 18.2554 10.8498 18.3681 10.4913C18.4808 10.1328 18.6683 9.80223 18.9181 9.52146C19.1629 9.35216 19.3303 9.09257 19.3837 8.79981C19.437 8.50705 19.3718 8.20509 19.2025 7.96037C19.0332 7.71564 18.7737 7.54819 18.4809 7.49486C18.1881 7.44152 17.8862 7.50667 17.6415 7.67597C17.0719 8.14875 16.6266 8.75349 16.344 9.43763C16.0615 10.1218 15.9504 10.8646 16.0203 11.6014C16.07 12.7537 16.4875 13.8597 17.2118 14.7572C17.8699 15.5548 18.2406 16.5506 18.2641 17.5844Z" fill="#352817"/>
</svg>
