<svg width="45" height="45" viewBox="0 0 45 45" fill="none" xmlns="http://www.w3.org/2000/svg">
<g clip-path="url(#clip0_344_1478)">
<path d="M14.062 13.1249C13.4995 13.1249 13.1245 13.4999 13.1245 14.0624V14.1562L14.812 38.5312C14.812 38.9999 15.2808 39.3749 15.7495 39.3749H29.2495C29.7183 39.3749 30.187 38.9999 30.187 38.5312L31.8745 14.1562C31.8745 13.5937 31.4995 13.2187 31.0308 13.1249H30.937C30.937 13.1249 14.062 13.1249 14.062 13.1249ZM15.0933 14.9999H29.9995L29.7183 18.7499H15.3745L15.0933 14.9999ZM18.7495 22.4999C19.312 22.4999 19.687 22.8749 19.687 23.4374C19.687 23.9999 19.312 24.3749 18.7495 24.3749C18.187 24.3749 17.812 23.9999 17.812 23.4374C17.812 22.8749 18.187 22.4999 18.7495 22.4999ZM24.3745 24.3749C25.8745 24.3749 27.187 25.6874 27.187 27.1874C27.187 28.6874 25.8745 29.9999 24.3745 29.9999C22.8745 29.9999 21.562 28.6874 21.562 27.1874C21.562 25.6874 22.8745 24.3749 24.3745 24.3749ZM24.3745 26.2499C23.812 26.2499 23.437 26.6249 23.437 27.1874C23.437 27.7499 23.812 28.1249 24.3745 28.1249C24.937 28.1249 25.312 27.7499 25.312 27.1874C25.312 26.6249 24.937 26.2499 24.3745 26.2499ZM20.6245 31.8749C21.6558 31.8749 22.4995 32.7187 22.4995 33.7499C22.4995 34.7812 21.6558 35.6249 20.6245 35.6249C19.5933 35.6249 18.7495 34.7812 18.7495 33.7499C18.7495 32.7187 19.5933 31.8749 20.6245 31.8749Z" fill="#352817"/>
<path d="M30.9374 5.625C30.8436 5.625 30.7499 5.625 30.5624 5.71875L24.9374 7.59375C24.6561 7.6875 24.3749 7.96875 24.2811 8.25L21.4686 19.5C21.3749 19.9688 21.6561 20.5313 22.1249 20.625C22.5936 20.7188 23.1561 20.4375 23.2499 19.9688L25.9686 9.1875L31.2186 7.5C31.6874 7.3125 31.9686 6.84375 31.8749 6.28125C31.6874 5.90625 31.4061 5.625 30.9374 5.625Z" fill="#352817"/>
</g>
<defs>
<clipPath id="clip0_344_1478">
<rect width="45" height="45" fill="white"/>
</clipPath>
</defs>
</svg>
