<svg width="260" height="434" viewBox="0 0 260 434" fill="none" xmlns="http://www.w3.org/2000/svg">
<mask id="mask0_344_305" style="mask-type:alpha" maskUnits="userSpaceOnUse" x="12" y="15" width="288" height="375">
<path fill-rule="evenodd" clip-rule="evenodd" d="M126.19 15.4986L299.231 78.9604L185.388 389.372L12.348 325.91L126.19 15.4986Z" fill="white"/>
</mask>
<g mask="url(#mask0_344_305)">
<path fill-rule="evenodd" clip-rule="evenodd" d="M231.894 141.064C233.804 136.692 235.725 132.327 237.653 127.962C235.725 132.327 233.804 136.692 231.894 141.064ZM212.271 187.348C211.398 189.477 210.523 191.604 209.634 193.726C209.283 194.564 208.927 195.4 208.571 196.235C207.409 198.951 206.208 201.652 204.936 204.328C203.904 206.501 202.823 208.656 201.678 210.788C200.991 212.067 200.28 213.339 199.541 214.599C199.308 214.995 199.074 215.39 198.837 215.785C197.881 217.368 196.885 218.937 195.828 220.485C195.405 221.116 194.984 221.747 194.564 222.379C193.304 224.274 192.057 226.17 190.824 228.069C190.003 229.334 189.188 230.602 188.382 231.872C189.188 230.602 190.003 229.334 190.824 228.069C192.057 226.17 193.304 224.274 194.564 222.379C194.984 221.747 195.405 221.116 195.828 220.485C196.885 218.937 197.881 217.368 198.837 215.785C199.074 215.39 199.308 214.995 199.541 214.599C200.28 213.339 200.991 212.067 201.678 210.788C202.823 208.656 203.904 206.501 204.936 204.328C206.208 201.652 207.409 198.951 208.571 196.235C208.927 195.4 209.283 194.564 209.634 193.726C210.523 191.604 211.398 189.477 212.271 187.348C217.74 173.966 223.341 160.761 229.038 147.627C223.341 160.761 217.74 173.966 212.271 187.348ZM184.802 237.599C181.425 243.105 178.205 248.662 175.2 254.322C174.586 255.479 173.984 256.641 173.388 257.808C172.525 259.493 171.68 261.187 170.859 262.894C170.281 264.094 169.719 265.301 169.164 266.512C168.201 268.606 167.271 270.718 166.378 272.851C166.005 273.739 165.638 274.632 165.277 275.526C164.197 278.212 163.173 280.93 162.212 283.684C161.629 285.414 160.962 287.113 160.217 288.775C160 289.262 159.779 289.745 159.548 290.225C159.139 291.075 158.709 291.913 158.258 292.74C158.034 293.155 157.803 293.566 157.567 293.975C157.096 294.793 156.605 295.599 156.092 296.393C154.557 298.775 152.837 301.051 150.942 303.2C150.1 304.155 149.224 305.084 148.312 305.987C147.402 306.889 146.456 307.766 145.478 308.612C146.456 307.766 147.402 306.889 148.312 305.987C149.224 305.084 150.1 304.155 150.942 303.2C152.837 301.051 154.557 298.775 156.092 296.393C156.605 295.599 157.096 294.793 157.567 293.975C157.803 293.566 158.034 293.155 158.258 292.74C158.709 291.913 159.139 291.075 159.548 290.225C159.779 289.745 160 289.262 160.217 288.775C160.962 287.113 161.629 285.414 162.212 283.684C163.173 280.93 164.197 278.212 165.277 275.526C165.638 274.632 166.005 273.739 166.378 272.851C167.271 270.718 168.201 268.606 169.164 266.512C169.719 265.301 170.281 264.094 170.859 262.894C171.68 261.187 172.525 259.493 173.388 257.808C173.984 256.641 174.586 255.479 175.2 254.322C178.205 248.662 181.425 243.105 184.802 237.599C185.584 236.322 186.376 235.049 187.176 233.777C186.376 235.049 185.584 236.322 184.802 237.599ZM83.5587 335.564C85.1085 335.114 86.6509 334.651 88.1904 334.174C86.6509 334.651 85.1085 335.114 83.5587 335.564ZM76.5416 337.487C78.1111 337.082 79.6736 336.662 81.2291 336.227C79.6736 336.662 78.1111 337.082 76.5416 337.487ZM246.219 218.888C247.754 215.21 247.375 211.174 248.911 207.496C250.244 204.914 249.71 201.699 251.264 199.441C252.12 197.901 252.152 196.208 252.733 194.617C253.108 194.121 253.484 193.625 253.859 193.129C254.114 191.761 254.37 190.392 254.625 189.024C255.002 188.527 255.651 188.083 255.753 187.535C256.384 185.671 256.195 183.654 256.825 181.789C256.877 181.515 257.748 181.394 257.8 181.121C258.328 179.804 258.088 178.06 258.839 177.068C259.694 175.528 259.727 173.835 260.307 172.245C260.632 172.022 261.23 171.85 261.281 171.577C262.576 166.156 262.503 160.478 264.619 155.209C265.422 153.944 265.779 152.028 265.539 150.284C265.247 148.814 266.049 147.547 266.032 146.127C266.083 145.855 265.313 145.428 265.365 145.153C265.447 143.187 266.677 141.152 266.112 139.63C265.768 138.433 266.298 137.117 266.229 135.97C266.006 135.645 265.784 135.32 265.561 134.996C265.714 134.175 265.868 133.355 266.02 132.534C265.798 132.209 265.301 131.833 265.353 131.56C265.385 129.867 266.239 128.327 265.999 126.583C264.915 118.735 264.43 110.715 264.543 102.525C264.525 101.105 264.78 99.7365 264.763 98.3169C264.813 98.0435 264.044 97.6171 264.094 97.3424C265.667 88.9177 265.333 80.137 263.637 71.7915C262.284 74.2819 260.828 76.8205 259.545 79.2785C260.828 76.8205 262.284 74.2819 263.637 71.7915C263.515 71.1916 263.387 70.5956 263.252 70.0004C263.354 69.4542 263.456 68.9065 263.559 68.3594C263.377 67.4614 263.178 66.5633 262.973 65.6632C262.339 67.4682 261.681 69.2641 261.579 71.2313C261.402 71.8126 262.589 73.1296 261.741 73.8255C258.994 75.5299 259.47 79.1742 258.09 81.6135C257.799 81.5256 256.926 81.2587 256.926 81.2587C255.568 84.6603 255.084 88.3286 253.727 91.7301C253.727 91.7301 252.855 91.4638 252.563 91.3754C252.143 93.7906 250.156 95.0913 248.46 96.4818C247.99 96.9747 248.217 98.3158 247.749 98.8092C247.457 98.7194 246.876 98.5423 246.586 98.4531C245.963 100.49 243.749 100.449 244.001 102.752C242.634 102.017 241.544 104.545 240.606 105.532C240.316 105.442 239.733 105.265 239.443 105.176C238.975 105.669 239.201 107.01 238.732 107.503C238.441 107.415 237.859 107.236 237.568 107.148C237.1 107.642 237.327 108.983 236.857 109.475C236.567 109.386 235.984 109.209 235.694 109.119C235.226 109.613 235.453 110.954 234.983 111.447C234.693 111.357 234.11 111.18 233.82 111.091C233.173 112.166 233.779 113.305 231.591 114.226C231.121 114.719 231.348 116.06 230.88 116.553C230.588 116.465 230.007 116.286 229.716 116.198C229.07 117.273 229.676 118.412 227.486 119.333C227.018 119.826 227.332 120.877 226.775 121.66C226.306 122.153 225.725 121.975 225.255 122.468C224.698 123.252 225.103 124.012 224.545 124.795C224.077 125.288 223.494 125.109 223.026 125.603C222.469 126.387 222.784 127.437 222.316 127.93C222.025 127.841 221.443 127.663 221.152 127.576C220.126 128.851 220.264 130.484 219.06 132.342C217.299 134.984 215.941 138.387 215.861 142.813C215.667 146.571 214.803 150.442 212.105 154.07C209.697 157.786 210.02 162.974 207.613 166.69C206.765 167.386 206.319 168.84 205.674 169.914C205.205 170.407 204.624 170.23 204.155 170.722C203.508 171.797 203.734 173.138 203.089 174.213C202.62 174.706 202.039 174.529 201.569 175.021C200.923 176.096 201.062 177.728 200.212 178.423C197.958 180.597 196.577 183.036 195.688 185.946C195.599 186.236 194.638 186.26 194.169 186.753C193.435 188.118 193.484 190.042 192.747 191.408C192.28 191.9 191.697 191.722 191.229 192.216C190.493 193.58 190.542 195.504 189.806 196.87C189.339 197.362 188.757 197.185 188.288 197.678C187.554 199.043 187.601 200.966 186.866 202.332C186.576 202.243 185.993 202.066 185.703 201.976C184.967 203.342 185.219 205.645 184.079 206.251C182.382 207.641 182.722 209.652 181.696 210.93C181.405 210.84 180.823 210.663 180.533 210.574C179.886 211.648 180.023 213.281 179.263 213.684C175.29 216.286 174.045 220.36 169.69 223.164C167.791 224.173 165.133 225.587 163.663 228.319C163.372 228.229 162.79 228.052 162.5 227.963C162.411 228.253 162.233 228.836 162.144 229.126C161.853 229.037 161.271 228.859 160.98 228.77C160.916 230.023 160.156 230.427 159.106 230.743C158.815 230.654 158.233 230.476 157.942 230.387C157.854 230.678 157.675 231.26 157.588 231.551C157.297 231.461 156.715 231.284 156.424 231.196C156.36 232.448 155.6 232.851 154.549 233.167C154.259 233.078 153.676 232.9 153.386 232.811C153.523 234.444 151.018 234.314 151.156 235.946L149.992 235.591C149.904 235.882 149.726 236.465 149.637 236.755C149.347 236.666 148.764 236.488 148.474 236.399L148.118 237.562C147.827 237.474 147.246 237.296 146.955 237.208C142.826 241.353 137.017 243.712 132.775 247.188C132.218 247.971 130.205 248.309 130.344 249.943C130.052 249.853 129.471 249.676 129.18 249.586C129.091 249.877 128.913 250.46 128.824 250.75C128.533 250.662 127.952 250.484 127.66 250.395C127.015 251.47 127.24 252.81 126.595 253.885C126.303 253.797 125.722 253.618 125.431 253.53C124.785 254.605 125.391 255.744 123.201 256.665C122.733 257.158 122.959 258.499 122.49 258.992C120.326 260.874 119.032 263.024 117.74 265.174C116.891 265.868 116.447 267.323 115.801 268.397C115.333 268.89 114.75 268.713 114.282 269.206C113.725 269.99 114.039 271.04 113.571 271.533C113.281 271.444 112.698 271.267 112.408 271.177C111.761 272.251 112.367 273.391 110.177 274.312C109.709 274.805 109.936 276.146 109.467 276.639C109.176 276.55 108.595 276.373 108.303 276.283C107.658 277.359 107.883 278.7 107.238 279.774C106.945 279.686 106.365 279.508 106.074 279.42C105.427 280.494 105.451 281.455 104.046 282.935C102.462 284.995 100.12 287.46 97.8655 289.633C97.3966 290.125 97.6226 291.467 97.1552 291.959C96.8629 291.871 96.2821 291.693 95.9912 291.605C89.051 298.707 82.4013 305.899 72.9969 310.658C68.5285 312.791 64.5535 315.393 60.0865 317.527C59.9972 317.817 59.8196 318.4 59.7304 318.69C59.44 318.601 58.8573 318.423 58.567 318.334C58.4786 318.626 58.3001 319.207 58.2122 319.498C57.92 319.41 57.3392 319.231 57.0483 319.143C51.9575 323.312 46.7542 326.812 41.1478 329.551C41.0585 329.841 40.8809 330.424 40.7917 330.714C40.5008 330.626 39.92 330.448 39.6291 330.36C39.5399 330.65 39.3628 331.231 39.2731 331.523C37.9964 330.497 36.7048 332.646 35.4276 331.62C35.3383 331.911 35.1612 332.492 35.0715 332.784C34.7811 332.694 34.1984 332.517 33.9081 332.428C33.8202 332.718 33.6412 333.301 33.5533 333.592C33.2616 333.502 32.6803 333.325 32.3899 333.235C32.3002 333.527 32.1231 334.108 32.0338 334.399C31.7429 334.311 31.1617 334.134 30.8699 334.044C30.782 334.335 30.6031 334.917 30.5152 335.208C30.2248 335.119 29.6422 334.941 29.3518 334.852C29.2625 335.142 29.0849 335.725 28.9957 336.015C28.7053 335.926 28.124 335.749 27.8318 335.661C27.7439 335.952 27.5654 336.532 27.4776 336.823C27.1867 336.735 26.604 336.558 26.3136 336.469C26.2244 336.759 26.0468 337.342 25.9575 337.632C25.6671 337.543 25.0859 337.366 24.7941 337.276C22.5652 340.411 19.6806 340.484 16.845 342.481C16.7557 342.771 16.5781 343.354 16.4889 343.644C16.1985 343.555 15.6158 343.377 15.3255 343.288C10.8422 348.597 4.18322 351.652 1.85015 358.253C1.85015 358.253 0.977113 357.986 0.686225 357.899C0.217361 358.39 0.443409 359.733 -0.0254648 360.224C-0.120308 360.312 -0.216039 360.397 -0.31176 360.483C7.99693 356.8 15.5318 353.46 24.3993 351.349C25.3232 350.956 27.4604 351.638 27.5451 349.67C28.5369 350.422 29.613 349.207 29.9378 348.984C33.1851 346.759 36.4324 344.534 40.1252 342.958C40.7235 342.785 41.5261 341.521 42.5179 342.272C42.5699 341.998 42.6714 341.451 42.6714 341.451C43.271 341.279 43.7152 341.928 44.3143 341.757C44.3143 341.757 44.4163 341.21 44.4664 340.936C45.2883 341.09 45.7845 341.465 47.0833 340.575C47.4081 340.353 48.1772 340.779 48.7248 340.881C49.0491 340.66 49.374 340.437 49.6988 340.214C50.8441 340.145 51.8374 340.896 52.9827 340.827C53.3075 340.604 53.6838 340.108 53.9567 340.16C55.8725 340.517 57.5654 340.55 59.4119 339.762C60.3864 339.094 61.8739 340.221 63.294 340.203C63.5669 340.254 63.9431 339.758 64.268 339.536C65.6862 339.518 66.73 339.995 68.4744 339.755C69.6717 339.411 70.663 340.164 71.8084 340.094C72.1332 339.871 72.5095 339.376 72.7829 339.426C74.4758 339.458 76.0162 340.314 77.7092 340.346C77.9826 340.396 78.4089 339.627 78.6837 339.678C80.8723 340.087 82.7881 340.444 84.7365 339.109C85.3342 338.938 85.8304 339.312 86.3776 339.416C86.7024 339.193 87.0272 338.97 87.352 338.748C87.8997 338.85 88.3953 339.226 88.993 339.054C89.9675 338.386 90.8915 337.992 91.7639 337.872C94.7731 338.434 97.492 337.526 100.432 336.941C101.304 336.822 102.296 337.573 102.672 337.077C103.647 336.409 104.913 337.212 105.887 336.544C106.262 336.048 107.528 336.851 108.178 336.405C109.425 335.789 110.947 335.223 111.819 335.104C114.333 335.288 115.785 333.578 118.076 333.44C118.624 333.542 119.119 333.918 119.719 333.746C121.241 333.181 122.761 332.615 124.232 332.323C125.702 332.031 127.395 332.064 128.694 331.174C129.292 331.003 129.738 331.652 130.336 331.48C130.935 331.309 131.686 330.317 132.284 330.144C132.882 329.973 133.328 330.623 133.927 330.452C137.345 328.824 139.891 327.317 143.927 326.939C151.826 325.581 157.653 320.156 165.362 316.781C168.131 315.599 169.412 313.29 171.958 311.783C177.377 308.546 180.365 303.157 185.217 298.399C185.594 297.903 187.012 297.884 187.714 297.166C196.375 287.173 209.01 284.717 219.402 277.596C220.101 276.877 220.58 275.834 221.502 275.44C222.375 275.319 222.649 275.371 224.1 273.659C227.38 269.74 229.942 265.121 231.956 260.4C232.28 260.178 232.88 260.006 232.93 259.733C233.664 257.321 233.577 254.756 234.309 252.344C234.361 252.071 235.233 251.951 235.283 251.677C235.916 249.812 235.725 247.794 236.63 245.982C237.433 244.716 237.414 243.296 237.943 241.979C237.995 241.705 238.867 241.585 238.917 241.311C239.498 239.72 239.257 237.977 240.11 236.437C240.913 235.171 240.896 233.751 241.424 232.435C241.476 232.16 242.074 231.989 242.399 231.766C242.552 230.946 242.704 230.125 242.858 229.304C243.183 229.082 243.782 228.911 243.832 228.636C244.993 225.454 244.734 222.291 246.219 218.888Z" fill="#37918A"/>
</g>
<mask id="mask1_344_305" style="mask-type:alpha" maskUnits="userSpaceOnUse" x="145" y="62" width="204" height="291">
<path fill-rule="evenodd" clip-rule="evenodd" d="M145.837 95.5235L289.115 62.4693L348.41 319.491L205.132 352.545L145.837 95.5235Z" fill="white"/>
</mask>
<g mask="url(#mask1_344_305)">
<path fill-rule="evenodd" clip-rule="evenodd" d="M271.208 133.322C270.577 129.568 269.957 125.815 269.342 122.057C269.957 125.815 270.577 129.568 271.208 133.322ZM278.28 172.8C278.624 174.603 278.968 176.405 279.299 178.211C279.429 178.924 279.557 179.637 279.683 180.351C280.09 182.672 280.466 185 280.783 187.342C281.041 189.244 281.259 191.155 281.423 193.079C281.522 194.233 281.601 195.393 281.657 196.556C281.674 196.923 281.69 197.289 281.704 197.656C281.756 199.131 281.775 200.613 281.743 202.108C281.736 202.714 281.73 203.319 281.725 203.924C281.71 205.74 281.703 207.55 281.707 209.356C281.71 210.56 281.718 211.763 281.734 212.963C281.718 211.763 281.71 210.56 281.707 209.356C281.703 207.55 281.71 205.74 281.725 203.924C281.73 203.319 281.736 202.714 281.743 202.108C281.775 200.613 281.756 199.131 281.704 197.656C281.69 197.289 281.674 196.923 281.657 196.556C281.601 195.393 281.522 194.233 281.423 193.079C281.259 191.155 281.041 189.244 280.783 187.342C280.466 185 280.09 182.672 279.683 180.351C279.557 179.637 279.429 178.924 279.299 178.211C278.968 176.405 278.624 174.603 278.28 172.8C276.098 161.474 274.082 150.211 272.161 138.952C274.082 150.211 276.098 161.474 278.28 172.8ZM281.84 218.349C281.984 223.5 282.257 228.617 282.716 233.708C282.81 234.749 282.915 235.788 283.026 236.827C283.184 238.329 283.358 239.83 283.554 241.328C283.691 242.381 283.842 243.433 283.999 244.484C284.269 246.303 284.569 248.119 284.902 249.934C285.04 250.69 285.184 251.446 285.333 252.201C285.782 254.467 286.284 256.729 286.842 258.988C287.207 260.398 287.502 261.824 287.73 263.259C287.797 263.679 287.86 264.098 287.915 264.52C288.012 265.265 288.09 266.013 288.15 266.762C288.181 267.137 288.206 267.513 288.226 267.889C288.268 268.64 288.291 269.393 288.295 270.147C288.308 272.408 288.152 274.678 287.822 276.94C287.677 277.946 287.496 278.948 287.281 279.949C287.067 280.949 286.817 281.947 286.532 282.938C286.817 281.947 287.067 280.949 287.281 279.949C287.496 278.948 287.677 277.946 287.822 276.94C288.152 274.678 288.308 272.408 288.295 270.147C288.291 269.393 288.268 268.64 288.226 267.889C288.206 267.513 288.181 267.137 288.15 266.762C288.09 266.013 288.012 265.265 287.915 264.52C287.86 264.098 287.797 263.679 287.73 263.259C287.502 261.824 287.207 260.398 286.842 258.988C286.284 256.729 285.782 254.467 285.333 252.201C285.184 251.446 285.04 250.69 284.902 249.934C284.569 248.119 284.269 246.303 283.999 244.484C283.842 243.433 283.691 242.381 283.554 241.328C283.358 239.83 283.184 238.329 283.026 236.827C282.915 235.788 282.81 234.749 282.716 233.708C282.257 228.617 281.984 223.5 281.84 218.349C281.805 217.155 281.779 215.959 281.759 214.76C281.779 215.959 281.805 217.155 281.84 218.349ZM256.916 327.944C257.756 326.968 258.584 325.986 259.405 324.996C258.584 325.986 257.756 326.968 256.916 327.944ZM253.067 332.288C253.939 331.334 254.8 330.372 255.65 329.403C254.8 330.372 253.939 331.334 253.067 332.288ZM314.712 179.068C314.134 175.941 312.122 173.411 311.544 170.284C311.308 167.977 309.55 166.062 309.604 163.876C309.503 162.474 308.787 161.329 308.481 160.013C308.515 159.518 308.55 159.023 308.585 158.528C308.159 157.502 307.733 156.477 307.307 155.451C307.342 154.955 307.582 154.375 307.411 153.965C307.02 152.444 306.014 151.179 305.622 149.658C305.537 149.453 306.066 148.992 305.982 148.787C305.761 147.677 304.839 146.616 304.909 145.626C304.808 144.224 304.092 143.079 303.786 141.764C303.906 141.473 304.231 141.097 304.146 140.892C302.647 136.706 300.123 132.944 299.239 128.502C299.224 127.307 298.627 125.871 297.706 124.81C296.87 123.955 296.853 122.76 296.223 121.819C296.138 121.614 295.437 121.665 295.352 121.459C294.55 120.109 294.484 118.213 293.443 117.443C292.692 116.793 292.472 115.683 291.926 114.947C291.635 114.827 291.345 114.707 291.054 114.587C290.799 113.972 290.544 113.357 290.287 112.742C289.998 112.622 289.502 112.587 289.417 112.382C288.701 111.237 288.599 109.836 287.678 108.776C283.532 104.005 279.712 98.8582 276.216 93.3373C275.584 92.3967 275.158 91.3713 274.528 90.4304C274.442 90.226 273.742 90.2765 273.656 90.0709C271.034 83.7565 266.982 78.0359 262.209 73.2002C262.392 75.4537 262.526 77.7848 262.74 79.9862C262.526 77.7848 262.392 75.4537 262.209 73.2002C261.866 72.8525 261.521 72.5102 261.171 72.1713C261.001 71.762 260.83 71.3517 260.661 70.9411C260.148 70.4205 259.623 69.9073 259.094 69.3952C259.458 70.8775 259.801 72.3645 260.59 73.7232C260.725 74.1888 262.093 74.5509 261.83 75.3856C260.738 77.7222 262.645 79.9491 262.786 82.1808C262.554 82.249 261.854 82.4514 261.854 82.4514C262.43 85.3157 263.706 87.9776 264.283 90.842C264.283 90.842 263.584 91.0441 263.351 91.1125C264.123 92.9092 263.362 94.6448 262.836 96.3132C262.737 96.8471 263.473 97.6443 263.376 98.178C263.142 98.2452 262.676 98.3804 262.443 98.4474C262.915 100.08 261.418 101.018 262.591 102.446C261.357 102.551 261.731 104.716 261.535 105.784C261.302 105.851 260.835 105.986 260.603 106.053C260.505 106.587 261.241 107.384 261.142 107.918C260.91 107.986 260.443 108.12 260.21 108.188C260.113 108.722 260.849 109.519 260.75 110.053C260.517 110.12 260.05 110.256 259.818 110.323C259.72 110.856 260.456 111.653 260.357 112.187C260.125 112.254 259.658 112.39 259.425 112.457C259.462 113.457 260.363 113.954 259.303 115.523C259.204 116.057 259.94 116.854 259.843 117.388C259.609 117.456 259.143 117.59 258.911 117.659C258.947 118.658 259.849 119.155 258.787 120.725C258.69 121.259 259.358 121.823 259.327 122.59C259.229 123.124 258.763 123.258 258.664 123.792C258.634 124.559 259.236 124.89 259.204 125.657C259.107 126.191 258.64 126.325 258.542 126.859C258.512 127.625 259.179 128.19 259.082 128.723C258.849 128.79 258.382 128.926 258.15 128.994C258.02 130.293 258.825 131.324 258.831 133.09C258.806 135.623 259.383 138.489 261.26 141.481C262.769 144.076 263.879 147.039 263.658 150.639C263.67 154.172 266.148 157.497 266.16 161.029C265.897 161.864 266.233 163.029 266.271 164.029C266.172 164.562 265.707 164.698 265.608 165.23C265.644 166.231 266.38 167.028 266.418 168.027C266.319 168.561 265.854 168.697 265.755 169.231C265.792 170.23 266.596 171.26 266.332 172.095C265.773 174.53 265.914 176.762 266.59 179.093C266.657 179.326 266.025 179.761 265.927 180.295C266.031 181.527 266.903 182.791 267.007 184.025C266.909 184.557 266.442 184.693 266.345 185.227C266.448 186.459 267.319 187.723 267.423 188.956C267.325 189.489 266.86 189.624 266.761 190.158C266.866 191.39 267.736 192.654 267.841 193.888C267.608 193.955 267.141 194.09 266.909 194.157C267.012 195.391 268.185 196.819 267.687 197.721C267.16 199.39 268.264 200.585 268.136 201.886C267.902 201.953 267.436 202.088 267.203 202.155C267.24 203.155 268.043 204.186 267.711 204.787C266.191 208.258 267.136 211.522 265.449 215.294C264.62 216.797 263.461 218.901 263.671 221.366C263.436 221.434 262.971 221.569 262.738 221.636C262.805 221.869 262.94 222.335 263.007 222.568C262.774 222.635 262.308 222.771 262.075 222.838C262.578 223.703 262.247 224.304 261.682 224.973C261.45 225.04 260.983 225.175 260.75 225.242C260.818 225.475 260.952 225.942 261.02 226.175C260.788 226.242 260.321 226.377 260.088 226.445C260.591 227.309 260.26 227.91 259.696 228.579C259.463 228.646 258.996 228.782 258.763 228.849C259.566 229.88 257.837 230.885 258.64 231.916L257.708 232.186C257.776 232.419 257.911 232.885 257.978 233.118C257.745 233.185 257.279 233.321 257.046 233.388L257.315 234.32C257.082 234.388 256.617 234.522 256.384 234.591C255.433 239.16 252.581 243.269 251.262 247.441C251.231 248.207 250.034 249.311 250.839 250.342C250.605 250.409 250.139 250.544 249.906 250.611C249.973 250.844 250.109 251.311 250.176 251.543C249.943 251.612 249.477 251.746 249.243 251.814C249.281 252.813 250.016 253.611 250.054 254.61C249.82 254.678 249.354 254.812 249.121 254.88C249.158 255.88 250.06 256.377 248.998 257.947C248.901 258.481 249.637 259.278 249.538 259.812C248.912 262.013 248.986 264.013 249.06 266.013C248.796 266.847 249.133 268.012 249.17 269.012C249.072 269.546 248.605 269.681 248.508 270.215C248.477 270.981 249.145 271.546 249.048 272.08C248.815 272.147 248.348 272.282 248.115 272.349C248.152 273.348 249.054 273.846 247.992 275.416C247.894 275.949 248.631 276.746 248.532 277.28C248.299 277.347 247.833 277.483 247.599 277.55C247.637 278.55 248.372 279.348 248.41 280.347C248.176 280.415 247.71 280.549 247.478 280.617C247.514 281.617 247.949 282.248 247.655 283.85C247.496 285.917 247.006 288.585 246.447 291.02C246.348 291.553 247.085 292.351 246.987 292.884C246.753 292.952 246.287 293.086 246.055 293.154C244.515 300.926 243.208 308.63 239.001 315.91C236.945 319.284 235.424 322.755 233.37 326.129C233.437 326.361 233.573 326.828 233.64 327.061C233.407 327.128 232.94 327.264 232.707 327.33C232.776 327.564 232.91 328.03 232.978 328.263C232.744 328.331 232.278 328.465 232.045 328.533C230.462 333.538 228.512 338.145 225.96 342.419C226.027 342.652 226.163 343.119 226.23 343.352C225.997 343.42 225.531 343.554 225.299 343.622C225.366 343.855 225.501 344.321 225.568 344.555C224.268 344.426 224.342 346.424 223.041 346.296C223.108 346.529 223.243 346.995 223.311 347.229C223.078 347.296 222.611 347.431 222.378 347.498C222.446 347.731 222.581 348.198 222.649 348.431C222.415 348.498 221.949 348.633 221.716 348.7C221.783 348.934 221.919 349.4 221.986 349.633C221.753 349.701 221.287 349.836 221.053 349.903C221.121 350.136 221.256 350.603 221.324 350.835C221.091 350.902 220.624 351.038 220.391 351.105C220.458 351.338 220.594 351.804 220.661 352.037C220.428 352.104 219.962 352.239 219.728 352.308C219.797 352.54 219.931 353.006 219.999 353.239C219.766 353.307 219.299 353.442 219.066 353.509C219.133 353.742 219.269 354.209 219.336 354.442C219.103 354.509 218.637 354.644 218.403 354.711C218.281 357.778 216.386 359.084 215.362 361.655C215.429 361.888 215.564 362.354 215.631 362.587C215.399 362.654 214.932 362.79 214.699 362.857C214.019 368.358 210.902 373.303 212.222 378.731C212.222 378.731 211.522 378.933 211.289 379.001C211.191 379.534 211.927 380.332 211.828 380.865C211.803 380.965 211.776 381.064 211.75 381.163C215.694 375.079 219.272 369.563 224.276 364.286C224.722 363.62 226.447 363.144 225.646 361.793C226.636 361.862 226.825 360.581 226.945 360.291C228.144 357.388 229.343 354.486 231.123 351.823C231.448 351.446 231.433 350.251 232.423 350.321C232.338 350.115 232.167 349.706 232.167 349.706C232.493 349.329 233.073 349.569 233.399 349.194C233.399 349.194 233.228 348.784 233.142 348.579C233.758 348.324 234.253 348.358 234.733 347.197C234.853 346.906 235.553 346.856 235.963 346.685C236.083 346.396 236.203 346.105 236.323 345.815C237.058 345.269 238.049 345.338 238.784 344.793C238.904 344.502 238.939 344.007 239.144 343.922C240.58 343.326 241.725 342.609 242.615 341.278C242.975 340.406 244.46 340.511 245.401 339.879C245.605 339.795 245.641 339.3 245.761 339.009C246.7 338.379 247.606 338.242 248.666 337.321C249.316 336.569 250.307 336.64 251.042 336.094C251.162 335.804 251.197 335.309 251.401 335.223C252.547 334.506 253.949 334.406 255.094 333.69C255.298 333.604 255.248 332.904 255.454 332.818C257.094 332.137 258.53 331.541 259.249 329.799C259.574 329.424 260.069 329.458 260.479 329.288C260.599 328.998 260.719 328.707 260.839 328.417C261.249 328.246 261.745 328.282 262.069 327.906C262.429 327.035 262.874 326.369 263.405 325.908C265.66 324.972 267.081 323.179 268.79 321.507C269.321 321.047 270.311 321.116 270.346 320.621C270.706 319.749 271.902 319.734 272.261 318.862C272.296 318.367 273.492 318.352 273.731 317.771C274.296 316.816 275.066 315.774 275.596 315.314C277.356 314.341 277.581 312.565 279.051 311.474C279.461 311.303 279.956 311.338 280.282 310.962C281.052 309.921 281.821 308.88 282.677 308.044C283.532 307.208 284.677 306.491 285.157 305.33C285.482 304.955 286.063 305.195 286.387 304.819C286.713 304.444 286.782 303.453 287.106 303.077C287.431 302.702 288.012 302.942 288.338 302.566C289.912 299.988 290.956 297.871 293.487 295.859C298.172 291.507 299.699 285.342 303.378 279.726C304.713 277.729 304.562 275.627 305.606 273.511C307.815 268.985 307.461 264.082 308.628 258.788C308.664 258.292 309.603 257.661 309.758 256.875C311.188 246.422 318.558 239.272 322.395 229.984C322.549 229.198 322.414 228.293 322.858 227.627C323.389 227.166 323.594 227.081 323.818 225.304C324.3 221.256 323.997 217.053 323.284 213.021C323.404 212.732 323.73 212.355 323.644 212.151C323.083 210.22 321.906 208.544 321.344 206.613C321.259 206.408 321.79 205.947 321.704 205.743C321.313 204.221 320.306 202.956 320.12 201.35C320.105 200.154 319.473 199.214 319.252 198.104C319.167 197.898 319.698 197.438 319.612 197.232C319.306 195.916 318.385 194.857 318.284 193.456C318.268 192.26 317.637 191.319 317.416 190.209C317.331 190.003 317.656 189.628 317.776 189.338C317.521 188.723 317.264 188.108 317.009 187.493C317.129 187.202 317.455 186.827 317.369 186.621C316.757 183.989 315.204 181.989 314.712 179.068Z" fill="#37918A"/>
</g>
<mask id="mask2_344_305" style="mask-type:alpha" maskUnits="userSpaceOnUse" x="49" y="56" width="281" height="249">
<path fill-rule="evenodd" clip-rule="evenodd" d="M329.471 171.027L255.291 56.2288L49.357 189.298L123.537 304.097L329.471 171.027Z" fill="white"/>
</mask>
<g mask="url(#mask2_344_305)">
<path fill-rule="evenodd" clip-rule="evenodd" d="M221.371 115.085C224.222 112.989 227.065 110.886 229.908 108.778C227.065 110.886 224.222 112.989 221.371 115.085ZM191.098 136.842C189.701 137.822 188.305 138.802 186.915 139.792C186.367 140.183 185.82 140.576 185.274 140.971C183.5 142.255 181.742 143.565 180.014 144.922C178.611 146.024 177.228 147.158 175.874 148.335C175.061 149.041 174.257 149.763 173.466 150.503C173.218 150.736 172.97 150.971 172.723 151.207C171.734 152.157 170.762 153.133 169.815 154.151C169.428 154.56 169.04 154.967 168.652 155.374C167.487 156.595 166.319 157.807 165.147 159.009C164.366 159.811 163.582 160.607 162.795 161.398C163.582 160.607 164.366 159.811 165.147 159.009C166.319 157.807 167.487 156.595 168.652 155.374C169.04 154.967 169.428 154.56 169.815 154.151C170.762 153.133 171.734 152.157 172.723 151.207C172.97 150.971 173.218 150.736 173.466 150.503C174.257 149.763 175.061 149.041 175.874 148.335C177.228 147.158 178.611 146.024 180.014 144.922C181.742 143.565 183.5 142.255 185.274 140.971C185.82 140.576 186.367 140.183 186.915 139.792C188.305 138.802 189.701 137.822 191.098 136.842C199.884 130.699 208.521 124.491 217.091 118.224C208.521 124.491 199.884 130.699 191.098 136.842ZM159.238 164.922C155.807 168.265 152.313 171.502 148.71 174.601C147.974 175.234 147.231 175.859 146.485 176.481C145.407 177.38 144.319 178.269 143.219 179.141C142.446 179.755 141.664 180.359 140.879 180.959C139.522 181.997 138.146 183.015 136.749 184.01C136.168 184.424 135.582 184.836 134.993 185.243C133.227 186.464 131.428 187.648 129.593 188.794C128.437 189.498 127.317 190.258 126.236 191.068C125.92 191.305 125.606 191.544 125.297 191.789C124.75 192.224 124.213 192.672 123.688 193.133C123.425 193.363 123.165 193.597 122.908 193.835C122.394 194.309 121.891 194.796 121.4 195.297C119.928 196.797 118.563 198.412 117.318 200.134C116.765 200.899 116.236 201.685 115.732 202.492C115.228 203.298 114.748 204.125 114.296 204.971C114.748 204.125 115.228 203.298 115.732 202.492C116.236 201.685 116.765 200.899 117.318 200.134C118.563 198.412 119.928 196.797 121.4 195.297C121.891 194.796 122.394 194.309 122.908 193.835C123.165 193.597 123.425 193.363 123.688 193.133C124.213 192.672 124.75 192.224 125.297 191.789C125.606 191.544 125.92 191.305 126.236 191.068C127.317 190.258 128.437 189.498 129.593 188.794C131.428 187.648 133.227 186.464 134.993 185.243C135.582 184.836 136.168 184.424 136.749 184.01C138.146 183.015 139.522 181.997 140.879 180.959C141.664 180.359 142.446 179.755 143.219 179.141C144.319 178.269 145.407 177.38 146.485 176.481C147.231 175.859 147.974 175.234 148.71 174.601C152.313 171.502 155.807 168.265 159.238 164.922C160.033 164.148 160.825 163.367 161.614 162.58C160.825 163.367 160.033 164.148 159.238 164.922ZM104.918 254.164C104.99 252.969 105.074 251.778 105.167 250.587C105.074 251.778 104.99 252.969 104.918 254.164ZM104.674 259.554C104.71 258.353 104.759 257.154 104.819 255.958C104.759 257.154 104.71 258.353 104.674 259.554ZM162.737 117.439C165.147 115.727 168.127 115.342 170.537 113.63C172.187 112.244 174.6 112.105 175.979 110.612C176.954 109.741 178.173 109.441 179.229 108.761C179.526 108.409 179.824 108.056 180.121 107.704C181.069 107.295 182.017 106.887 182.965 106.479C183.263 106.125 183.478 105.583 183.858 105.419C185.103 104.659 186.593 104.466 187.839 103.705C188.029 103.623 187.974 102.973 188.163 102.891C189.029 102.293 190.33 102.182 190.925 101.477C191.899 100.606 193.119 100.306 194.174 99.6271C194.282 99.3557 194.309 98.8948 194.498 98.813C198.208 96.9905 202.327 96.1153 205.792 93.7238C206.576 92.9366 207.903 92.3649 209.204 92.2536C210.316 92.2247 211.101 91.4378 212.13 91.2184C212.319 91.1366 212.754 91.6241 212.944 91.5417C214.353 91.1606 215.624 89.9387 216.817 90.0987C217.739 90.1516 218.605 89.5533 219.445 89.4157C219.717 89.5238 219.988 89.6319 220.26 89.74C220.828 89.4949 221.396 89.2498 221.965 89.0056C222.236 89.1128 222.59 89.4108 222.779 89.329C223.998 89.0287 224.972 88.16 226.273 88.0487C232.127 87.5503 238.008 86.5901 243.914 85.1702C244.944 84.9517 245.892 84.5433 246.921 84.3239C247.111 84.243 247.545 84.7296 247.736 84.6482C253.573 82.1337 259.979 80.9405 266.292 80.8041C264.712 82.1894 263.114 83.6577 261.545 84.9871C263.114 83.6577 264.712 82.1894 266.292 80.8041C266.746 80.7942 267.198 80.7895 267.651 80.7896C268.029 80.6269 268.409 80.4637 268.788 80.2995C269.467 80.2843 270.149 80.2817 270.834 80.2827C269.632 81.0361 268.44 81.806 267.034 82.2011C266.642 82.4242 265.496 81.7805 265.131 82.5077C264.347 84.7734 261.633 85.0241 260.094 86.4215C260.205 86.6176 260.541 87.2055 260.541 87.2055C258.302 88.7431 255.728 89.6928 253.489 91.2304C253.489 91.2304 253.824 91.8173 253.936 92.0143C252.258 92.7127 251.641 94.3629 250.913 95.8167C250.633 96.2368 249.626 96.292 249.345 96.7112C249.458 96.9076 249.681 97.2991 249.793 97.4945C248.422 98.2779 248.813 99.8729 247.106 100.067C247.861 100.935 246.21 102.137 245.65 102.976C245.762 103.172 245.986 103.564 246.098 103.76C245.817 104.179 244.81 104.234 244.53 104.654C244.641 104.85 244.866 105.242 244.977 105.438C244.697 105.857 243.689 105.912 243.41 106.333C243.522 106.528 243.745 106.92 243.857 107.116C243.577 107.535 242.57 107.59 242.29 108.01C242.402 108.206 242.626 108.598 242.738 108.794C242.065 109.437 241.143 109.185 240.834 110.918C240.554 111.338 239.547 111.394 239.267 111.813C239.378 112.01 239.602 112.401 239.713 112.597C239.042 113.24 238.119 112.988 237.81 114.722C237.53 115.141 236.719 115.086 236.243 115.617C235.963 116.037 236.187 116.428 235.907 116.848C235.432 117.379 234.815 117.21 234.34 117.742C234.06 118.161 234.284 118.553 234.004 118.972C233.528 119.503 232.717 119.448 232.437 119.867C232.549 120.062 232.772 120.455 232.883 120.651C232.128 121.601 230.924 121.768 229.777 122.943C228.154 124.648 225.914 126.186 222.725 126.967C220.039 127.722 217.38 128.979 215.197 131.524C212.902 133.873 209.097 134.487 206.802 136.835C206.438 137.562 205.459 138.122 204.787 138.764C204.507 139.184 204.73 139.576 204.451 139.995C203.779 140.639 202.772 140.694 202.1 141.337C201.82 141.757 202.043 142.148 201.763 142.568C201.092 143.211 199.889 143.378 199.524 144.106C198.32 146.092 196.782 147.489 194.822 148.607C194.626 148.719 194.766 149.418 194.486 149.838C193.619 150.593 192.219 150.872 191.352 151.627C191.072 152.046 191.296 152.438 191.015 152.857C190.148 153.613 188.749 153.892 187.881 154.647C187.602 155.066 187.825 155.457 187.545 155.877C186.677 156.632 185.279 156.911 184.41 157.666C184.522 157.862 184.746 158.254 184.858 158.45C183.99 159.205 182.284 159.399 182.031 160.323C181.303 161.778 179.793 161.861 179.036 162.811C179.149 163.007 179.372 163.399 179.484 163.594C178.813 164.237 177.609 164.405 177.441 165.021C176.209 168.32 173.465 169.886 172.149 173.494C171.729 175.034 171.14 177.187 169.404 178.696C169.517 178.893 169.74 179.284 169.852 179.48C169.657 179.592 169.264 179.815 169.069 179.927C169.181 180.123 169.404 180.515 169.516 180.711C168.62 180.962 168.453 181.578 168.396 182.389C168.508 182.585 168.732 182.977 168.844 183.173C168.647 183.284 168.256 183.508 168.06 183.619C168.172 183.815 168.395 184.207 168.506 184.403C167.611 184.654 167.443 185.27 167.387 186.081C167.499 186.277 167.722 186.669 167.834 186.864C166.631 187.032 167.134 188.823 165.931 188.99L166.378 189.774C166.182 189.885 165.79 190.109 165.594 190.221C165.706 190.416 165.93 190.809 166.042 191.004L165.259 191.452C165.37 191.648 165.594 192.039 165.705 192.235C163.381 195.899 162.624 200.486 160.803 204.122C160.327 204.654 160.412 206.165 159.207 206.331C159.32 206.528 159.543 206.919 159.655 207.115C159.46 207.227 159.067 207.451 158.872 207.563C158.983 207.759 159.207 208.149 159.319 208.346C158.647 208.989 157.64 209.045 156.968 209.687C157.08 209.884 157.304 210.275 157.415 210.471C156.744 211.114 155.82 210.862 155.512 212.597C155.231 213.016 154.224 213.071 153.945 213.491C152.937 215.364 151.593 216.651 150.249 217.937C149.886 218.665 148.906 219.223 148.235 219.867C147.955 220.286 148.178 220.678 147.898 221.097C147.422 221.628 146.611 221.573 146.33 221.992C146.442 222.187 146.666 222.58 146.778 222.775C146.107 223.418 145.183 223.166 144.875 224.901C144.595 225.32 143.588 225.375 143.308 225.795C143.42 225.991 143.643 226.382 143.755 226.578C143.083 227.221 142.076 227.277 141.404 227.92C141.516 228.117 141.74 228.508 141.851 228.704C141.18 229.347 140.481 229.486 139.64 230.745C138.408 232.227 137.008 234.324 135.804 236.31C135.525 236.729 134.517 236.785 134.238 237.204C134.349 237.401 134.573 237.792 134.684 237.988C130.681 244.169 126.565 250.154 124.66 257.734C123.846 261.315 122.614 264.615 121.801 268.195C121.605 268.307 121.213 268.531 121.017 268.643C121.129 268.838 121.353 269.231 121.465 269.426C121.268 269.538 120.877 269.762 120.681 269.873C120.793 270.07 121.017 270.461 121.128 270.657C118.944 275.021 117.263 279.356 116.198 283.859C116.002 283.971 115.61 284.195 115.414 284.307C115.526 284.503 115.75 284.894 115.861 285.09C115.665 285.202 115.274 285.425 115.077 285.538C116.028 286.293 114.685 287.579 115.635 288.335C115.44 288.447 115.048 288.67 114.852 288.783C114.964 288.978 115.188 289.371 115.3 289.566C115.104 289.677 114.712 289.902 114.516 290.013C114.628 290.209 114.851 290.601 114.963 290.796C114.767 290.909 114.376 291.132 114.18 291.244C114.291 291.44 114.514 291.831 114.627 292.028C114.431 292.139 114.039 292.364 113.843 292.475C113.955 292.67 114.179 293.063 114.291 293.258C114.095 293.37 113.703 293.594 113.507 293.706C113.619 293.901 113.842 294.293 113.954 294.49C113.758 294.601 113.367 294.825 113.171 294.936C113.282 295.132 113.506 295.524 113.618 295.72C113.422 295.832 113.03 296.055 112.834 296.167C112.946 296.363 113.169 296.754 113.282 296.951C111.378 299.075 111.797 301.174 110.816 303.551C110.621 303.663 110.228 303.887 110.033 303.999C110.145 304.194 110.368 304.587 110.48 304.782C107.373 308.893 106.251 314.209 101.857 316.975C101.857 316.975 102.193 317.563 102.304 317.759C102.025 318.178 101.017 318.234 100.738 318.654C100.69 318.737 100.644 318.82 100.597 318.903C101.904 312.291 103.089 306.295 103.166 299.536C103.3 298.803 102.458 297.369 103.867 296.986C103.161 296.391 103.864 295.415 103.972 295.143C105.051 292.431 106.13 289.718 106.667 286.79C106.694 286.329 107.478 285.541 106.772 284.947C106.962 284.864 107.341 284.702 107.341 284.702C107.367 284.24 106.825 284.024 106.851 283.563C106.851 283.563 107.23 283.4 107.42 283.319C107.174 282.75 106.822 282.452 107.253 281.367C107.361 281.096 106.927 280.609 106.764 280.23C106.871 279.959 106.979 279.688 107.087 279.416C106.95 278.576 106.244 277.981 106.107 277.141C106.215 276.87 106.512 276.516 106.431 276.327C105.859 275 105.559 273.781 105.827 272.316C106.151 271.502 105.092 270.611 104.874 269.58C104.792 269.391 105.089 269.038 105.197 268.767C104.978 267.738 104.463 267.061 104.352 265.76C104.405 264.838 103.698 264.243 103.561 263.404C103.669 263.132 103.966 262.779 103.885 262.59C103.585 261.37 102.715 260.396 102.415 259.177C102.334 258.987 102.82 258.553 102.739 258.362C102.085 256.846 101.514 255.519 102.161 253.891C102.188 253.431 101.835 253.133 101.671 252.754C101.779 252.483 101.887 252.212 101.995 251.94C101.832 251.561 101.479 251.264 101.505 250.803C101.83 249.989 101.963 249.257 101.908 248.606C101.01 246.521 101.223 244.406 101.165 242.183C101.109 241.533 100.403 240.938 100.7 240.585C101.024 239.771 100.237 238.987 100.561 238.172C100.859 237.82 100.071 237.036 100.287 236.493C100.528 235.49 100.689 234.297 100.633 233.647C100.089 231.858 101.089 230.528 100.815 228.849C100.651 228.469 100.298 228.172 100.325 227.71C100.485 226.517 100.646 225.325 100.616 224.213C100.587 223.102 100.287 221.883 100.718 220.798C100.745 220.337 100.202 220.121 100.229 219.66C100.255 219.199 100.849 218.494 100.877 218.033C100.903 217.572 100.36 217.356 100.386 216.895C101.004 214.156 101.678 212.068 101.293 209.088C100.985 203.151 103.957 198.05 105.138 191.923C105.541 189.727 107.002 188.422 107.676 186.334C109.132 181.885 112.541 178.844 115.19 174.556C115.487 174.203 115.269 173.174 115.674 172.549C121.487 164.651 121.199 155.11 124.652 146.43C125.058 145.806 125.734 145.29 125.869 144.558C125.814 143.907 125.731 143.718 126.733 142.388C129.031 139.375 131.954 136.767 135.04 134.539C135.147 134.268 135.174 133.807 135.363 133.726C136.988 132.801 138.857 132.444 140.482 131.521C140.671 131.439 140.616 130.788 140.805 130.707C142.051 129.945 143.542 129.753 144.705 128.802C145.49 128.014 146.52 127.796 147.386 127.199C147.576 127.116 147.52 126.466 147.71 126.384C148.766 125.705 150.066 125.594 151.041 124.725C151.825 123.937 152.855 123.718 153.721 123.121C153.911 123.038 153.937 122.578 154.045 122.307C154.614 122.061 155.183 121.817 155.751 121.572C155.859 121.301 155.885 120.84 156.075 120.758C158.187 119.399 160.518 119.069 162.737 117.439Z" fill="#37918A"/>
</g>
</svg>
