<svg width="251" height="287" viewBox="0 0 251 287" fill="none" xmlns="http://www.w3.org/2000/svg">
<path fill-rule="evenodd" clip-rule="evenodd" d="M220.866 11.4458C220.755 11.2494 220.643 11.0692 220.539 10.9151C219.798 9.81106 218.186 8.83269 216.916 8.52012C216.105 8.32071 215.629 8.55353 214.867 8.71445C213.052 9.09667 211.057 7.88639 209.389 7.32649C207.007 6.52723 204.529 5.72708 202.24 4.775C201.062 4.2838 199.898 3.69596 198.637 3.38982C197.238 3.04945 196.167 3.23221 194.738 3.39474C193.37 3.55111 192.173 3.58627 190.851 4.05406C189.802 4.4254 188.84 4.69142 187.765 4.95844C185.197 5.59548 181.827 7.09826 179.911 8.98305C178.28 10.5874 175.924 11.4272 174.033 12.7271C172.126 14.0387 169.863 14.7269 167.988 16.089C166.059 17.492 165.566 19.22 166.431 21.4225C166.944 22.7276 167.612 23.8971 168.014 25.2449C168.24 26.0071 168.581 26.7309 168.827 27.4871C169 28.0188 169.335 28.4536 169.534 28.9465C169.424 28.6724 169.195 28.4765 169.074 28.1432C168.85 27.5311 168.483 27.1347 168.123 26.6115C167.529 25.7427 166.925 24.906 166.191 24.1795C165.906 23.899 165.735 23.4878 165.47 23.1828C165.141 22.8027 164.726 22.5093 164.394 22.1345C164.064 21.7607 163.642 21.4805 163.311 21.1069C163.168 20.9475 163.105 20.7257 162.871 20.7055C162.479 20.6744 161.543 21.6178 161.222 21.841C160.83 22.1131 160.428 22.3792 160.004 22.6009C159.064 23.0924 157.765 23.4589 156.909 24.0958C156.087 24.7063 155.37 25.5818 154.606 26.2744C153.667 27.1232 152.929 28.1948 152.042 29.0992C150.393 30.7771 148.487 31.9616 146.586 33.3095C144.741 34.6188 142.61 35.7315 141.099 37.4312C139.908 38.7724 138.705 40.1507 137.635 41.5897C136.778 42.7408 135.817 43.2496 134.643 44.0451C133.381 44.9015 132.457 46.1566 131.209 47.0374C128.602 48.8748 125.218 50.1032 122.353 51.4905C120.037 52.6116 117.844 54.2088 115.69 55.6237C113.497 57.0643 111.377 58.5431 109.26 60.093C108.061 60.9703 106.773 61.7349 105.633 62.6928C104.405 63.7252 103.265 64.8384 101.917 65.7249C99.3385 67.4221 96.8783 69.2729 94.5687 71.3537C92.6144 73.1148 90.7014 74.9227 88.6573 76.5823C85.4745 79.1676 82.3749 82.0499 78.9248 84.2749C76.6174 85.7623 74.2343 87.0381 72.063 88.7264C70.4232 90.0013 68.7951 91.2909 67.1598 92.5727C64.4972 94.6609 61.9994 96.9416 59.3653 99.0621C57.4088 100.639 55.8154 102.501 53.903 104.086C52.3755 105.351 50.8367 106.459 49.4667 107.909C48.5175 108.915 47.5845 109.872 46.5505 110.788C45.5854 111.64 45.0136 112.534 44.2619 113.522C43.4398 114.602 42.3007 115.308 41.2961 116.191C40.3495 117.022 39.4535 117.979 38.5574 118.873C37.8507 119.575 37.2609 120.401 36.5485 121.098C35.8847 121.746 35.0838 122.217 34.4138 122.855C32.4957 124.683 30.9689 127.012 29.3348 129.081C27.255 131.715 24.4051 133.627 22.6176 136.532C20.0606 140.69 16.8458 144.687 14.9133 149.204C14.5591 150.03 14.1884 150.936 13.9173 151.808C13.7508 152.346 13.7427 152.797 13.5068 153.322C13.2522 153.888 12.9092 154.414 12.7226 155.022C12.2382 156.61 11.8001 158.317 11.6667 159.922C11.5948 160.79 11.5842 161.541 11.9311 162.343C12.3983 163.422 12.9974 164.458 13.5114 165.515C14.4473 167.434 16.0503 167.997 17.9002 168.946C18.822 169.419 19.7569 169.712 20.6962 170.074C21.6923 170.458 22.6641 170.978 23.6878 171.283C25.3954 171.791 27.0637 173.09 28.7099 173.88C29.4551 174.238 30.0957 174.804 30.76 175.227C31.2362 175.53 31.3685 175.513 31.8288 175.952C32.2609 176.362 32.6679 176.799 33.1238 177.18C34.557 178.378 36.1498 179.487 37.2566 180.79C37.9618 181.62 38.6185 182.25 39.4422 182.883C40.4121 183.627 41.5329 183.741 42.4424 184.661C44.0471 186.285 45.3878 187.908 47.1807 189.311C47.7856 189.784 48.5634 190.187 49.2134 190.594C50.1181 191.162 50.7832 192.027 51.6289 192.649C52.1964 193.068 52.739 193.649 53.3393 194.012C54.2052 194.534 55.4699 194.76 56.1998 195.486C56.8965 196.182 56.9615 197.309 57.539 198.07C58.0825 198.785 58.9223 199.367 59.5305 200.065C61.2736 202.065 62.9356 204.223 64.8273 206.083C65.4695 206.714 66.2054 207.388 66.7177 208.129C67.2554 208.909 67.546 209.839 68.0881 210.634C68.9303 211.869 70.0619 213.527 71.1988 214.39C72.2004 215.151 73.3854 215.028 74.633 215.318C75.3492 215.483 76.1318 215.481 76.8212 215.721C77.0797 215.811 77.3223 216.016 77.5764 216.09C77.9964 216.211 78.0318 216.084 78.4095 216.15C78.9395 216.242 79.3033 216.45 79.8704 216.449C81.051 216.446 82.4385 215.507 83.4505 214.997C84.8 214.319 86.2062 213.764 87.3727 212.802C91.4448 209.442 95.4072 205.967 99.3326 202.431C101.035 200.897 102.397 199.084 104.069 197.527C105.141 196.529 106.214 195.534 107.274 194.523C108.053 193.781 108.877 193.144 108.819 191.966C108.802 191.611 108.793 191.253 108.782 190.898C108.777 190.725 108.816 190.41 108.77 190.245C108.715 190.053 108.57 190.041 108.518 189.848C108.409 189.436 108.443 189.109 108.248 188.687C108.126 188.422 107.898 188.206 107.761 187.948C107.318 187.111 107.05 186.19 106.492 185.397C105.998 184.694 105.507 183.933 105.079 183.156C104.758 182.569 104.296 182.073 103.991 181.478C103.739 180.984 103.314 180.729 103.063 180.291C102.961 180.112 102.968 179.945 102.834 179.764C102.664 179.531 102.374 179.407 102.206 179.159C101.964 178.799 101.882 178.479 101.576 178.128C101.093 177.576 100.51 177.116 99.9943 176.596C99.1442 175.74 98.2368 174.879 97.4592 173.96C97.1667 173.615 97.0375 173.15 96.6532 172.894C97.2823 173.177 97.7231 173.784 98.287 174.161C100.521 175.658 102.454 177.612 104.608 179.228C105.473 179.878 106.421 180.12 107.364 180.607C108.094 180.984 108.582 181.622 109.347 181.935C110.885 182.563 112.537 182.837 114.102 183.389C114.667 183.588 115.413 184.069 116.038 183.983C116.312 183.946 116.48 183.803 116.666 183.609C117.679 182.55 118.423 181.024 119.224 179.799C120.877 177.27 122.516 175.04 124.577 172.839C127.088 170.157 129.251 166.944 131.537 164.048C134.715 160.027 137.384 155.443 140.18 151.162C142.891 147.014 144.94 142.523 147.342 138.199C149.253 134.759 151.524 131.616 153.897 128.49C154.646 127.502 155.38 126.461 156.241 125.568C156.721 125.068 157.349 124.653 157.72 124.058C158.125 123.409 158.321 122.262 158.011 121.561C157.635 120.716 156.724 120.237 156.164 119.532C155.901 119.2 155.739 118.849 155.428 118.525C155.142 118.227 154.898 117.886 154.607 117.595C154.326 117.314 154.01 117.167 153.707 116.932C153.332 116.64 153.152 116.328 152.879 115.939C152.497 115.392 152.072 114.938 151.66 114.436C151.403 114.125 151.019 113.92 150.756 113.615C150.447 113.258 150.199 112.848 149.892 112.484C149.045 111.48 148.12 110.586 147.201 109.671C146.77 109.241 146.301 108.864 145.924 108.386C145.565 107.931 145.115 107.697 144.811 107.197C144.012 105.879 143.345 104.343 142.059 103.438C141.395 102.971 140.536 102.713 139.914 102.172C139.512 101.824 139.176 101.36 138.835 100.954C139.41 101.411 139.873 101.854 140.509 102.257C141.422 102.837 142.332 103.339 143.057 104.12C144.15 105.294 145.523 106.132 146.744 107.183C147.842 108.127 149.167 108.785 150.297 109.632C150.576 109.84 150.948 109.951 151.255 110.136C151.856 110.498 152.463 110.987 153.023 111.417C153.594 111.856 154.149 112.24 154.764 112.629C156.022 113.425 157.376 113.936 158.717 114.56C159.604 114.971 160.519 115.296 161.39 115.742C161.953 116.032 162.659 116.108 163.24 115.78C163.723 115.508 163.954 114.964 164.203 114.497C165.747 111.6 167.553 108.743 169.558 106.146C174.187 100.148 179.771 94.9776 185.029 89.5468C186.707 87.8149 188.48 86.3157 190.357 84.8214C192.093 83.4413 193.306 81.6759 194.597 79.9036C195.797 78.2557 195.05 76.8762 193.82 75.4541C193.599 75.1969 193.342 75.0412 193.107 74.8054C192.725 74.423 192.353 73.9568 191.945 73.5984C191.61 73.3041 191.276 73.1232 190.95 72.7884C190.593 72.4215 190.2 72.0688 189.817 71.7285C188.732 70.7627 187.6 69.7826 186.473 68.8713C185.724 68.2662 184.713 67.9327 184.097 67.2428C183.804 66.9139 182.727 66.0852 182.901 65.6601C184.079 66.0022 185.202 66.6355 186.344 67.0718C187.135 67.3734 187.997 67.7086 188.716 68.1644C189.381 68.5858 190.072 68.7355 190.837 68.9774C191.923 69.3205 193.05 69.6513 194.095 70.1139C194.497 70.2917 194.72 70.5439 195.082 70.7523C195.737 71.1294 196.294 71.6328 197.007 71.9289C197.558 72.158 198.348 72.1715 198.74 72.6772C199.523 71.9837 200.078 70.7095 200.682 69.8474C201.419 68.7956 202.179 67.7585 202.963 66.7406C204.525 64.7105 206.181 62.7506 207.941 60.8906C208.811 59.971 209.824 59.1133 210.4 57.9623C211 56.7642 211.234 55.5689 211.939 54.4174C213.087 52.5401 213.906 50.4183 214.973 48.4865C216.288 46.1073 216.914 43.6128 217.533 40.9625C218.209 38.0724 218.899 35.1548 218.966 32.1755C219.01 30.2224 219.3 28.2721 219.334 26.3275C219.347 25.6146 219.569 25.0099 219.622 24.3009C219.692 23.3458 219.491 22.4142 219.693 21.4285C219.972 20.0688 220.134 18.4381 220.711 17.17C220.887 16.7829 221.381 16.4049 221.463 16.0018C221.562 15.5154 221.201 15.0097 221.244 14.4967C221.274 14.1404 221.556 13.7765 221.564 13.4476C221.576 12.8804 221.227 12.081 220.866 11.4458Z" fill="#008F82"/>
<path fill-rule="evenodd" clip-rule="evenodd" d="M190.805 24.621C190.578 25.0241 190.366 25.4352 190.153 25.8451C189.544 27.0235 188.859 27.344 187.803 28.0491C184.632 30.1656 181.712 32.8503 178.687 35.1801C177.681 35.9543 176.674 36.8323 175.614 37.5489C174.598 38.2343 173.618 38.5628 172.78 39.4872C171.738 40.6357 170.504 41.4654 169.393 42.5431C167.348 44.5246 165.435 46.5717 163.262 48.4193C161.568 49.8609 160.214 51.5704 158.573 53.0612C153.39 57.773 147.916 62.2001 142.995 67.184C141.195 69.0081 139.266 70.6799 137.45 72.4886C134.842 75.0869 132.475 77.9155 129.709 80.3563C124.941 84.5613 119.95 88.5279 115.56 93.1589C113.63 95.1945 112.013 97.3198 109.857 99.137C106.284 102.152 102.95 105.527 99.0236 108.092C95.0871 110.665 91.6292 113.301 88.1724 116.486C84.4332 119.93 80.2504 122.712 76.2708 125.875C73.4356 128.129 71.2482 130.492 69.4751 133.693C67.837 136.652 65.7309 139.387 63.3724 141.814C60.869 144.39 57.7998 146.355 55.3386 148.944C53.5029 150.874 51.5243 152.461 49.5322 154.237C45.817 157.55 41.7903 160.401 39.026 164.619C34.4999 171.524 29.3044 177.973 24.9884 185.016C22.7486 188.669 20.4724 192.348 18.3906 196.095C17.2248 198.194 16.2229 200.386 15.0541 202.48C13.1455 205.901 10.8184 209.017 8.68657 212.292C5.03384 217.905 1.83776 223.812 -1.29821 229.726C-3.29605 233.496 -4.92217 237.468 -7.00596 241.189C-8.03412 243.025 -8.94579 245.084 -10.1846 246.776C-11.5401 248.627 -13.0458 250.2 -14.1604 252.252C-15.2263 254.217 -16.1273 256.252 -17.2122 258.211C-17.9326 259.515 -18.7217 260.987 -19.2627 262.378C-19.646 263.364 -19.8402 265.101 -19.8345 266.124C-19.8298 267.128 -19.8281 267.422 -20.1204 268.334C-20.3165 268.945 -20.1492 269.575 -20.2357 270.184C-20.3163 270.751 -20.5796 271.233 -20.7279 271.779C-21.0065 272.806 -21.5799 274.444 -21.5002 275.456C-21.4346 276.288 -20.7459 276.575 -20.0848 277.074C-18.9767 277.913 -17.8327 278.482 -16.6806 279.223C-16.0039 279.658 -15.7791 280.128 -15.3495 280.786C-15.0197 281.289 -14.6515 281.545 -14.1839 281.942C-13.1926 282.782 -11.881 283.88 -11.3426 285.131C-11.0516 284.24 -10.7897 283.466 -10.9659 282.555C-11.1781 281.455 -11.4898 280.419 -11.4254 279.291C-11.3799 278.482 -11.2288 277.657 -11.1355 276.835C-11.0226 275.835 -10.9643 274.573 -10.7107 273.626C-10.5686 273.1 -10.2876 272.757 -10.1912 272.178C-10.0987 271.619 -10.0465 271.031 -9.87806 270.488C-9.55799 269.457 -9.21698 268.509 -8.94167 267.476C-8.62451 266.275 -7.83519 265.065 -7.06021 264.117C-5.59485 262.329 -4.30663 259.849 -3.40971 257.718C-2.82908 256.339 -1.69306 255.202 -1.27773 253.812C-0.709738 251.911 0.0865768 249.815 1.4115 248.277C2.05071 247.535 2.66243 246.77 3.2498 245.986C3.72022 245.359 4.13821 244.737 4.74819 244.237C5.2211 243.849 5.52502 243.461 5.70416 242.862C5.8303 242.44 5.85287 241.998 5.99433 241.58C6.13472 241.164 6.28906 240.751 6.43323 240.336C6.83206 239.19 7.2305 238.009 7.47286 236.823C7.68794 235.78 8.03329 234.942 8.48639 233.962C9.25365 232.306 10.0954 230.686 10.8784 229.038C11.6485 227.417 11.8691 225.611 12.5234 223.949C12.8216 223.191 12.8998 222.439 13.3012 221.708C13.9919 220.446 14.8906 219.305 15.656 218.089C16.7956 216.278 17.8879 214.411 18.9083 212.531C20.065 210.397 20.9166 208.154 21.8503 205.918C22.7267 203.822 23.8508 201.714 24.3874 199.488C24.5549 198.791 24.8453 198.05 24.8208 197.326C24.8132 197.075 24.7762 196.867 24.8465 196.619C25.0043 196.059 25.3608 195.511 25.6331 195.001C26.0284 194.261 26.4552 193.537 26.9076 192.831C27.5053 191.896 28.101 190.986 28.5533 189.968C29.5403 187.745 30.6885 185.643 31.9539 183.562C32.6511 182.416 33.4116 181.274 34.2596 180.235C34.9902 179.34 35.7733 178.502 36.4308 177.551C37.0797 176.611 37.8515 175.771 38.394 174.765C38.7102 174.179 39.1602 173.661 39.5895 173.155C40.1303 172.519 40.6575 171.872 41.1954 171.232C41.8499 170.453 42.6772 169.914 43.4232 169.23C44.0848 168.625 44.7141 167.914 45.4705 167.422C45.918 167.131 46.3327 166.845 46.7606 166.524C47.3561 166.078 48.005 165.771 48.4104 165.157C48.6151 164.846 48.8945 164.594 49.0645 164.25C49.1889 164 49.2357 163.71 49.3614 163.46C49.5482 163.092 49.8786 162.739 50.132 162.413C50.5798 161.835 51.0442 161.324 51.5437 160.796C51.8635 160.458 52.1984 160.164 52.4146 159.753C52.7605 159.095 53.2463 158.639 53.7614 158.087C54.9099 156.86 56.1662 155.771 57.2642 154.491C57.8013 153.865 58.0056 153.779 58.6397 153.285C59.7218 152.442 60.3735 151.09 61.4011 150.203C62.1963 149.518 63.1197 149.01 63.9136 148.295C65.0392 147.278 66.1353 146.5 67.4569 145.733C68.6783 145.024 69.394 144.055 70.4419 143.122C72.0784 141.664 73.9298 140.634 75.4079 138.974C77.0393 137.141 78.8384 135.537 80.6225 133.857C83.4422 131.204 85.9607 128.506 89.0774 126.172C90.838 124.856 92.2994 123.315 93.9406 121.865C96.2264 119.844 98.5803 117.928 100.822 115.845C103.282 113.562 104.868 110.764 106.983 108.205C109.281 105.424 112.021 103.171 114.753 100.846C116.121 99.6807 117.225 98.3166 118.478 97.0432C120.34 95.1501 122.49 93.5432 124.643 92.0014C127.174 90.1889 129.694 88.3273 132.148 86.4093C134.2 84.8068 135.987 82.8683 137.981 81.1889C139.44 79.9613 140.588 78.5537 141.867 77.1552C143.136 75.764 144.562 74.6378 145.78 73.1886C147.376 71.2914 149.381 69.9915 151.136 68.2651C152.689 66.7367 154.236 65.2952 155.861 63.8396C157.353 62.5033 158.515 61.0239 159.906 59.6268C162.061 57.4609 164.611 55.7942 166.539 53.3877C168.001 51.563 169.925 50.2827 171.684 48.7532C173.392 47.2679 175.146 45.8623 176.9 44.4319C179.852 42.027 182.767 39.3182 185.427 36.5954C187.156 34.8266 188.735 33.2482 189.798 31.0679C190.176 30.2906 190.636 29.5751 191.033 28.8091C191.657 27.5982 191.838 26.1737 192.284 24.8841C192.514 24.2169 192.48 23.4924 192.443 22.8483C192.429 22.6095 191.235 23.8993 191.174 23.9978C191.047 24.2028 190.923 24.411 190.805 24.621Z" fill="#5D9D98"/>
</svg>
