<svg width="101" height="99" viewBox="0 0 101 99" fill="none" xmlns="http://www.w3.org/2000/svg">
<g filter="url(#filter0_f_344_1468)">
<path fill-rule="evenodd" clip-rule="evenodd" d="M63.5148 1.84523C61.6153 3.03461 59.727 4.1985 57.85 5.35706C55.9726 6.51774 54.1077 7.67226 52.2539 8.84717C50.4014 10.0212 48.5614 11.2149 46.7356 12.4508C44.9089 13.6855 43.0963 14.9624 41.2973 16.304C40.8169 16.6631 40.3059 17.0031 39.7831 17.3359C39.2617 17.668 38.7257 17.9946 38.1952 18.3269C37.6669 18.6597 37.141 18.9964 36.6374 19.3537C36.1343 19.7089 35.6518 20.082 35.2095 20.4865C34.7898 20.8691 34.4209 21.3056 34.0814 21.771C33.7419 22.2363 33.8778 22.8094 33.5727 23.3115C33.2668 23.8123 32.5173 24.2438 32.1995 24.7375C31.883 25.2304 31.5484 25.7091 31.1756 26.1481C30.1702 27.3288 29.2742 28.6323 28.4606 30.0134C27.6461 31.3932 26.9149 32.8519 26.241 34.3401C25.5657 35.8292 24.9477 37.3477 24.36 38.8506C23.7724 40.3535 23.2156 41.8387 22.663 43.2643C22.396 43.9528 22.0996 44.6326 21.7896 45.3083C21.4808 45.9831 21.1585 46.6538 20.8366 47.3223C20.5147 47.9908 20.1933 48.6572 19.8903 49.3266C19.5851 49.9955 19.746 50.7432 19.4888 51.4182C19.2305 52.0975 18.6219 52.7618 18.5277 53.5346C18.4342 54.3087 18.4053 55.115 18.408 55.925C18.4112 56.7328 18.4469 57.5456 18.481 58.3301C18.5151 59.1146 18.5485 59.8721 18.5471 60.5748C18.5446 61.3679 18.5935 62.1613 18.679 62.9516C18.7631 63.7427 18.8825 64.5316 19.0238 65.3175C19.1664 66.1025 19.3287 66.8841 19.4976 67.6616C19.6687 68.4395 19.8454 69.212 20.0132 69.9791C20.0856 70.3086 20.1366 70.639 20.1743 70.9687C20.2141 71.2988 20.2414 71.6295 20.2701 71.9594C20.3001 72.2884 20.3309 72.6188 20.3746 72.9464C20.4191 73.2754 20.4753 73.6024 20.5589 73.9266C20.7059 74.5055 20.9498 75.0153 21.2461 75.4863C21.5445 75.9577 21.8964 76.3896 22.2657 76.8141C22.6328 77.2381 23.0151 77.6543 23.3712 78.0927C23.7281 78.5324 24.058 78.993 24.3238 79.5053C24.7469 80.328 25.1451 81.1116 25.5456 81.8643C25.9474 82.6162 26.355 83.3369 26.7983 84.0331C27.2438 84.7298 27.7262 85.401 28.2805 86.0558C28.8341 86.7093 29.4582 87.3471 30.1877 87.9747C30.8637 88.5557 31.6215 89.1358 32.4348 89.6936C33.2472 90.25 34.1145 90.7806 35.0087 91.2611C35.9007 91.7412 36.8209 92.1704 37.7357 92.5223C38.6519 92.8734 39.5658 93.149 40.4467 93.321C41.3375 93.4941 42.231 93.4326 43.107 93.2084C43.9829 92.9841 44.8426 92.5961 45.6648 92.1147C46.4869 91.6333 47.2729 91.0577 48.0032 90.4607C48.7327 89.8625 49.4064 89.2429 50.0037 88.6702C50.6289 88.0723 51.2902 87.534 51.961 87.0134C52.6326 86.4941 53.3133 85.9948 53.9754 85.4779C54.6354 84.9605 55.279 84.426 55.875 83.834C56.4697 83.2428 57.0196 82.5958 57.4931 81.8545C57.8793 81.2495 58.243 80.6294 58.5932 79.9996C58.9435 79.3698 59.281 78.7316 59.6161 78.0895C59.9519 77.4487 60.2832 76.8035 60.6225 76.1624C60.961 75.5199 61.3075 74.8815 61.6711 74.2524C62.1881 73.3551 62.68 72.4702 63.153 71.59C63.626 70.7099 64.0813 69.8336 64.5242 68.9524C64.9693 68.0716 65.4029 67.1872 65.8347 66.2911C66.2668 65.3929 66.6958 64.484 67.1304 63.555C67.4949 62.775 67.8778 62.0383 68.2543 61.3203C68.6321 60.6015 69.0036 59.9014 69.3482 59.1909C69.692 58.4791 70.0085 57.7589 70.2731 57.0005C70.5386 56.2433 70.7529 55.449 70.8936 54.588C70.9491 54.2521 71.008 53.9159 71.0678 53.581C71.128 53.244 71.1912 52.9088 71.2523 52.5731C71.3147 52.2365 71.3766 51.9021 71.4355 51.5659C71.4945 51.2297 71.5513 50.893 71.6033 50.5575C71.6867 50.0152 71.7198 49.4829 71.7262 48.9548C71.7312 48.4276 71.7096 47.9044 71.6833 47.3825C71.6561 46.8593 71.6255 46.3364 71.6147 45.8101C71.6017 45.2833 71.609 44.751 71.6572 44.2109C71.7085 43.6468 71.8077 43.089 71.9253 42.534C72.0428 41.9791 72.1787 41.4272 72.3006 40.8732C72.4245 40.3197 72.5344 39.7642 72.604 39.2031C72.6716 38.6416 72.6976 38.0753 72.6523 37.4977C72.6121 37.0029 72.5854 36.5783 72.57 36.1886C72.5567 35.7995 72.5552 35.4431 72.5666 35.0841C72.5793 34.7242 72.6036 34.3624 72.6421 33.9567C72.6802 33.5532 72.732 33.108 72.7966 32.5849C72.9125 31.6591 72.8846 30.7809 72.7665 29.9307C72.6463 29.0801 72.4372 28.2568 72.1893 27.4417C71.9407 26.6252 71.6532 25.817 71.381 24.9953C71.108 24.1724 70.8477 23.3377 70.6546 22.4676C70.5501 21.9954 70.4012 21.5515 70.2293 21.1205C70.0595 20.6899 69.8642 20.2737 69.6675 19.8584C69.4708 19.4431 69.2694 19.029 69.0868 18.6011C68.9028 18.174 68.7362 17.7341 68.6054 17.2696C68.4849 16.8387 68.319 16.4313 68.1318 16.0338C67.9455 15.6376 67.7396 15.2538 67.5379 14.871C67.3363 14.4881 67.1398 14.1075 66.9756 13.7174C66.811 13.3293 66.6778 12.9303 66.6013 12.5137C66.5045 11.9761 66.4388 11.4701 66.3857 10.9781C66.3326 10.486 66.2894 10.0096 66.2351 9.53298C66.1821 9.05552 66.1175 8.57995 66.0193 8.08911C65.9232 7.59873 65.7924 7.09391 65.6085 6.56053C65.4516 6.10704 65.2711 5.65948 65.0987 5.21038C64.925 4.76211 64.7599 4.31573 64.6352 3.86378C64.5092 3.41265 64.4244 2.95724 64.4102 2.49174C64.3981 2.02671 64.456 1.55371 64.6189 1.06706" fill="#B4814C"/>
<path fill-rule="evenodd" clip-rule="evenodd" d="M40.7859 38.2215C41.0845 37.6228 41.3585 37.0086 41.7299 36.4495C41.8757 36.2266 42.0715 36.0708 42.2496 35.8786C42.3491 35.7731 42.4304 35.659 42.5012 35.5315C42.5658 35.417 42.6159 35.2972 42.6571 35.172C42.7936 34.759 42.9362 34.3786 43.1029 33.9757C43.1445 33.8741 43.1281 33.7563 43.1711 33.6483C43.2406 33.4812 43.3764 33.3434 43.4431 33.169C43.5307 32.9355 43.5859 32.6768 43.6768 32.4541C43.7142 32.3661 43.7816 32.3598 43.825 32.2754C43.8769 32.1727 43.8952 32.0547 43.9576 31.9454C44.0747 31.7352 44.1399 31.593 44.1927 31.3651C44.342 30.7075 44.8752 30.1665 45.1565 29.5897C45.2667 29.3656 45.4755 29.1007 45.566 28.8947C45.9357 28.0711 46.0685 27.0997 46.694 26.4046C46.896 26.1807 47.1157 25.9877 47.2755 25.7265C47.5711 25.2469 47.7572 24.696 47.9844 24.1867C48.4979 23.0334 49.0257 21.8855 49.5808 20.7515C50.2908 19.3026 52.0628 17.2196 52.1818 15.6395C51.015 16.1754 50.2713 17.7814 49.4182 18.7351C48.3859 19.8908 47.3919 21.0807 46.4515 22.3117C45.6333 23.3805 44.8556 24.4786 44.1114 25.5974C43.8927 25.9273 43.7921 26.224 43.6042 26.5562C43.4636 26.8015 43.3596 27.0785 43.1939 27.3104C43.0499 27.5102 42.9239 27.6546 42.8548 27.9001C42.7757 28.1758 42.5963 28.4092 42.4783 28.6785C42.3965 28.8607 42.2501 29.1115 42.1033 29.2838C41.8536 29.5765 41.7365 29.9681 41.4821 30.2822C41.3122 30.493 41.1358 30.7024 40.9625 30.9136C40.6211 31.327 40.3467 31.7967 40.0739 32.2691C39.8572 32.6453 39.6168 33.0476 39.5253 33.465C39.4641 33.7458 39.2825 34.0245 39.1646 34.2883C39.0219 34.6082 38.8333 34.8328 38.6541 35.1154C38.4941 35.3676 38.5332 35.6908 38.3726 35.9451C38.284 36.0822 38.1877 36.1325 38.0724 36.2334C37.8213 36.4519 37.7429 36.5935 37.6183 36.8927C37.142 38.0498 36.1136 38.9411 35.7792 40.1654C35.6417 40.6689 35.529 41.1365 35.3186 41.6204C35.0172 42.3125 34.7553 43.0235 34.5779 43.7577C34.2881 44.9573 34.2278 46.1977 34.103 47.426C33.3578 54.7589 30.3003 61.6201 27.8421 68.5705C27.3225 70.0393 26.8424 71.5672 26.794 73.1371C26.7767 73.6538 26.7096 74.642 27.0801 75.0713C27.4363 75.4839 27.9424 74.1465 28.0125 73.871C28.083 73.5989 28.2152 73.3865 28.2572 73.1014C28.2911 72.8783 28.3845 72.7143 28.4928 72.5189C28.5864 72.3494 28.6459 72.2126 28.6678 71.9879C28.692 71.7526 28.5834 71.5763 28.5659 71.3675C28.5222 70.8127 28.9166 70.5487 29.1244 70.1067C29.2617 69.8159 29.3895 69.6741 29.4414 69.3643C29.4923 69.0644 29.4397 68.8322 29.4727 68.5473C29.5045 68.2779 29.5513 67.9513 29.6415 67.6959C29.7661 67.3362 29.9441 67.0891 30.0073 66.7136C30.0944 66.2 30.1828 65.6857 30.272 65.1726C30.3486 64.7317 30.4862 64.263 30.4549 63.8138C30.3972 62.9894 30.6945 62.2449 30.9712 61.4622C31.7402 59.2887 32.8335 57.2476 33.6356 55.0859C34.0334 54.0099 34.3578 52.9109 34.6666 51.8074C35.1225 50.1868 35.5452 48.5544 36.1332 46.9743C36.3813 46.3051 36.7669 45.6473 36.9047 44.9457C37.0492 44.2087 37.4625 43.5974 37.8815 42.9807C38.0833 42.6818 38.2452 42.3807 38.458 42.1078C38.536 42.0087 38.6011 42.013 38.7105 41.9086C38.907 41.7193 38.9536 41.4185 39.1137 41.2066C39.1882 41.1078 39.3073 41.0503 39.3851 40.9623C39.5128 40.8205 39.5516 40.6657 39.6231 40.4901C39.7375 40.2065 39.9207 40.0367 40.07 39.7877C40.282 39.4329 40.3737 39.0043 40.5713 38.6385C40.6446 38.5002 40.7157 38.3615 40.7859 38.2215Z" fill="#9C7543"/>
<path fill-rule="evenodd" clip-rule="evenodd" d="M48.1964 74.2407C48.2344 73.817 48.2322 73.3934 48.2389 72.9695C48.2446 72.6562 48.2187 72.3191 48.3654 72.0314C48.4687 71.8282 48.6014 71.6942 48.6287 71.4551C48.668 71.0967 48.6609 70.7402 48.7716 70.3875C48.9582 69.7942 49.1799 69.2187 49.2877 68.5967C49.4179 67.8487 49.6284 67.0513 49.5995 66.3038C49.5721 65.5902 49.8606 64.8751 49.7744 64.1641C49.748 63.95 49.6525 63.7598 49.608 63.5518C49.5803 63.4191 49.5733 63.2844 49.5864 63.1496C49.6062 62.9446 49.7289 62.8151 49.7804 62.6284C49.8302 62.4447 49.7371 62.2841 49.7615 62.1036C49.7822 61.9549 49.903 61.713 49.7618 61.5977C50.01 61.1905 50.2361 60.8981 50.1936 60.3882C50.166 60.0485 50.1682 59.7814 50.2229 59.4443C50.2643 59.1871 50.4536 58.9951 50.4577 58.7341C50.4632 58.4319 50.4351 58.1805 50.4938 57.8756C50.527 57.7005 50.4874 57.6066 50.4823 57.4432C50.4763 57.2582 50.57 57.204 50.6408 57.0417C50.9292 56.3725 51.1578 55.6754 51.4514 55.0084C52.1514 53.423 52.7955 51.7412 52.9152 50.0012C52.9701 49.204 52.9125 48.4143 53.0282 47.6205C53.1485 46.811 53.168 46.007 53.2421 45.194C53.3143 44.3894 53.5241 43.6053 53.6096 42.8015C53.6979 41.9848 53.8332 41.2391 54.0377 40.4437C54.4976 38.6539 55.1631 36.9163 55.7192 35.1568C56.1069 33.9297 56.2199 32.6484 56.4654 31.3908C56.5379 31.024 56.6933 30.6869 56.7674 30.3227C56.8317 30.0179 56.8682 29.7271 56.9666 29.4299C57.1127 28.9888 57.2817 28.555 57.4163 28.1102C57.5765 27.5849 57.6504 27.0449 57.8414 26.5275C58.0675 25.9072 58.3702 25.315 58.5963 24.6946C58.8889 23.8908 59.1252 23.0678 59.3961 22.2559C59.8812 20.7963 60.1766 19.2688 60.7472 17.8427C61.0939 16.9714 61.4611 16.1036 61.7219 15.201C61.8624 14.7139 62.0584 14.1439 62.1037 13.6367C62.15 13.1253 62.164 12.6034 62.2018 12.0901C62.2561 11.3409 62.124 9.85293 63.1055 9.6017C63.1435 9.5922 63.1844 9.58449 63.2261 9.57807C64.7905 9.3588 64.2296 11.9972 64.1988 12.8725C64.1687 13.7748 64.0818 14.6914 63.9485 15.5843C63.8095 16.5084 63.5328 17.3717 63.2646 18.2626C62.5848 20.5186 61.8465 22.7661 61.3539 25.0715C61.2659 25.4829 61.2432 25.8731 61.021 26.2234C60.8724 26.4591 60.8447 26.6343 60.8 26.9065C60.6883 27.5713 60.5625 28.2341 60.4585 28.8995C60.3824 29.3785 60.1688 29.7912 59.9479 30.2214C59.7437 30.6171 59.5117 31.047 59.2659 31.4179C59.0233 31.7849 58.8799 32.0979 58.7602 32.5315C58.6739 32.8448 58.7776 33.1141 58.6962 33.4151C58.6076 33.7335 58.3975 34.0194 58.2838 34.33C58.177 34.6197 58.1252 34.9038 58.072 35.2088C58.032 35.4395 58.0735 35.5853 58.083 35.8101C58.0909 36.0268 58.0621 36.2119 58.0971 36.4424C58.1388 36.7237 58.2337 37.0224 58.2329 37.3088C58.2327 37.4207 58.1952 37.5288 58.2127 37.6368C58.2544 37.8778 58.337 38.0249 58.2943 38.3031C58.256 38.5565 58.225 38.8273 58.1645 39.0747C58.077 39.4236 57.9378 39.7229 57.8762 40.0865C57.7794 40.674 57.5473 41.1095 57.327 41.6528C57.0865 42.2476 57.1887 42.9118 56.9256 43.4971C56.7929 43.7923 56.7509 44.0975 56.6992 44.4163C56.4789 45.7824 56.0102 47.0923 55.7843 48.4583C55.7397 48.7249 55.668 48.9922 55.6324 49.2586C55.5617 49.7691 55.7099 50.3068 55.8135 50.8034C55.8962 51.1923 55.8785 51.5701 55.9316 51.9614C55.9658 52.2108 56.0403 52.44 56.029 52.6927C56.0036 53.2659 55.7373 53.8404 55.5143 54.3562C55.3912 54.6435 55.2226 54.8535 55.0861 55.1254C54.7696 55.7594 54.6353 56.4807 54.3145 57.1193C54.1185 57.5079 53.9622 57.9098 53.853 58.3513C53.6834 59.0346 53.7056 59.7772 53.4725 60.4442C53.3538 60.7873 53.2778 61.0996 53.2132 61.4614C53.1728 61.6886 53.1219 61.9079 53.1196 62.1403C53.1169 62.5763 53.0692 62.8668 52.9234 63.2767C52.7022 63.9049 52.7033 64.5913 52.4834 65.2187C52.2741 65.8137 52.0212 66.4438 51.9224 67.0656C51.879 67.337 51.8033 67.6123 51.805 67.8825C51.8507 67.9083 51.8743 67.9483 51.8741 67.9997C51.8398 68.1645 51.8067 68.3284 51.778 68.4933C51.6954 68.9362 51.8018 69.3998 51.7564 69.8465C51.7161 70.235 51.6852 70.6065 51.6903 70.9972C51.7002 71.83 51.3296 72.5919 50.9542 73.3202C50.4116 74.373 49.8661 75.4386 49.4432 76.547C49.2236 77.123 48.7627 77.717 48.3569 78.1732C48.1606 78.3972 47.9291 78.5977 47.7572 78.8428C47.6494 78.9958 47.5823 79.1264 47.4263 79.244C47.2272 79.3946 46.7792 79.865 46.5075 79.798C46.4804 79.4506 46.5918 78.9032 46.7212 78.5827C46.9944 77.9067 47.2873 77.2071 47.5911 76.5446C47.9329 75.801 48.123 75.0607 48.1964 74.2407Z" fill="#9C7543"/>
</g>
<defs>
<filter id="filter0_f_344_1468" x="17.4077" y="0.06706" width="56.4629" height="94.3537" filterUnits="userSpaceOnUse" color-interpolation-filters="sRGB">
<feFlood flood-opacity="0" result="BackgroundImageFix"/>
<feBlend mode="normal" in="SourceGraphic" in2="BackgroundImageFix" result="shape"/>
<feGaussianBlur stdDeviation="0.5" result="effect1_foregroundBlur_344_1468"/>
</filter>
</defs>
</svg>
