<svg width="98" height="102" viewBox="0 0 98 102" fill="none" xmlns="http://www.w3.org/2000/svg">
<g filter="url(#filter0_f_344_1473)">
<path fill-rule="evenodd" clip-rule="evenodd" d="M12.3278 51.6504C12.3195 51.704 12.3072 51.7576 12.2989 51.8112C12.1011 53.0272 12.2371 54.3091 12.2165 55.5374C12.2124 55.9372 12.3525 56.168 12.4226 56.5349C12.505 56.9471 12.336 57.417 12.4061 57.8292C12.4556 58.1095 12.5669 58.3815 12.6575 58.6577C12.8636 59.2924 13.1604 60.0509 13.5108 60.6692C13.7334 61.0649 13.8735 61.5883 14.1744 61.9469C14.3846 62.1943 14.4382 62.219 14.5577 62.5075C14.9534 63.4432 15.3821 64.4366 15.7284 65.4341C16.0664 66.411 16.4909 67.3425 16.9072 68.2741C17.1545 68.8305 17.2988 69.4529 17.5379 70.0094C17.7069 70.401 18.0366 70.8132 18.2592 71.1882C18.8404 72.1693 19.4628 73.1461 20.3655 73.8345C20.9055 74.2508 21.4496 74.6053 21.9854 75.0175C22.41 75.3472 22.8015 75.6811 23.2879 75.9161C23.5105 76.0274 23.6877 76.0933 23.8732 76.2541C24.0134 76.3777 24.1412 76.658 24.2978 76.8023C24.6358 77.1073 25.0068 77.3876 25.3489 77.6885C25.6621 77.9605 25.9012 78.2285 26.1939 78.5417C27.0471 79.4485 28.0899 80.2523 28.8731 81.1715C29.3925 81.7815 30.2498 82.202 30.9711 82.5317C32.4221 83.1995 33.8894 83.9084 35.2538 84.7452C35.5753 84.943 35.9422 85.1945 36.2142 85.4706C36.3585 85.619 36.4862 85.8169 36.6305 85.9735C37.0427 86.4187 37.5126 86.7031 37.9701 87.0782C38.1226 87.2059 38.2257 87.3997 38.3864 87.5151C38.6338 87.6965 38.8728 87.783 39.1243 87.9974C39.5447 88.356 39.9899 88.7846 40.4927 89.0237C40.7112 89.1309 40.909 89.2834 41.1234 89.4153C41.4449 89.6131 41.8159 89.6708 42.1168 89.8481C42.2116 89.9058 42.2404 90.0501 42.3393 90.1078C42.4795 90.1943 42.7144 90.1614 42.8711 90.1902C43.341 90.2768 43.7655 90.3551 44.256 90.3427C44.7465 90.3303 45.1835 90.1614 45.674 90.1366C47.1578 90.0624 48.7695 89.9841 50.1998 89.5472C50.4842 89.4606 50.7233 89.337 50.9706 89.1762C51.6301 88.7475 52.2855 88.4054 53.0151 88.1004C54.8246 87.3502 56.733 86.9009 58.6208 86.3939C59.1691 86.2455 59.6554 86.0807 60.1624 85.8581C60.9085 85.5242 61.7494 85.4294 62.5408 85.2645C63.427 85.0832 64.0824 84.8194 64.7996 84.3412C65.6363 83.7848 66.6503 83.5045 67.6025 83.2118C68.8844 82.8244 70.2611 82.0989 71.3039 81.258C71.881 80.7964 72.6477 80.6027 73.2618 80.1039C74.1357 79.3908 75.092 78.7519 75.8257 77.8863C75.9699 77.7132 76.0688 77.4989 76.2214 77.334C76.3409 77.2103 76.5264 77.1444 76.6335 77.0207C77.0375 76.5632 77.2601 75.9078 77.5733 75.3843C78.1051 74.494 78.3029 73.649 78.7027 72.6886C79.1644 71.5716 79.7868 70.5535 80.2485 69.4364C80.5617 68.6656 80.8544 67.866 81.1718 67.1034C81.7571 65.6814 82.6392 64.383 83.3028 62.9857C83.6738 62.2107 83.9293 61.3039 84.3168 60.562C84.4116 60.3848 84.5847 60.2364 84.6877 60.0468C84.9351 59.5727 84.9886 58.9998 85.1741 58.4969C85.5286 57.5571 85.5327 56.5431 85.7636 55.5827C85.9985 54.5852 85.5822 53.5877 85.3802 52.5737C85.2895 52.1409 85.3225 51.7246 85.2566 51.3083C85.1824 50.859 85.0834 50.5128 85.0752 50.0347C85.0711 49.7132 84.9474 49.6472 84.898 49.404C84.8485 49.1567 84.8938 48.8929 84.8815 48.6373C84.8691 48.3653 84.7537 48.2581 84.7001 48.0355C84.5971 47.5863 84.7331 47.104 84.6919 46.6423C84.6465 46.1477 84.5641 45.6531 84.4445 45.1667C84.1849 44.128 83.7438 43.1387 83.1709 42.236C82.6762 41.457 82.1528 40.6944 81.6087 39.9484C79.8321 37.5123 77.8413 35.2329 75.7638 33.0524C74.754 31.9931 73.7441 30.7978 72.5817 29.9033C72.2231 29.6271 71.8728 29.4128 71.5801 29.0624C71.1391 28.5348 71.003 27.9372 70.7021 27.3436C70.5455 27.0345 70.2322 26.6676 70.0426 26.375C69.7829 25.9751 69.4656 25.5794 69.177 25.192C68.9586 24.8952 68.8019 24.6561 68.5794 24.3841C68.3815 24.1491 68.2661 23.8606 68.0806 23.6215C67.9363 23.4319 67.7632 23.3742 67.6025 23.2052C67.1449 22.723 66.9388 21.9893 66.5225 21.4658C66.1804 21.0371 65.8259 20.6125 65.4632 20.2127C64.9562 19.648 64.375 19.3265 63.6578 19.0503C62.5573 18.6299 61.3702 18.1394 60.3603 17.5294C60.0264 17.3315 59.6348 17.2449 59.3174 17.0471C59.1979 16.9729 59.0372 16.7503 58.9053 16.6555C58.5796 16.4123 58.2664 16.1485 57.9284 15.9218C57.4997 15.6292 57.0092 15.3077 56.5187 15.151C55.5335 14.8295 54.5154 14.6811 53.6416 14.1205C53.0068 13.7084 52.3185 13.358 51.5848 13.156C50.6079 12.8922 49.631 12.513 48.6376 12.3234C44.9444 11.6103 41.2841 12.1668 37.694 13.1148C36.6099 13.4033 35.4887 13.6094 34.516 14.1783C33.9554 14.5039 33.3495 14.743 32.793 15.0851C32.2654 15.4066 31.5688 15.6827 31.1484 16.1485C30.9093 16.4123 30.8186 16.6926 30.5054 16.907C30.1715 17.1378 29.7758 17.2862 29.4172 17.4799C28.6381 17.9045 27.9251 18.0528 27.2738 18.6423C26.5195 19.3224 25.7982 20.019 25.1139 20.7774C24.8254 21.0948 24.5121 21.4987 24.1494 21.7337C23.7702 21.9769 23.3044 22.117 22.9458 22.4138C22.48 22.7971 22.1709 23.4855 21.903 24.0296C21.5031 24.8375 21.0332 25.6165 20.6458 26.4327C20.3737 27.0015 20.246 27.5827 19.9574 28.1309C19.4793 29.0418 19.1248 30.0847 18.5601 30.9379C18.1891 31.4944 17.4389 32.1539 17.237 32.7886C17.1545 33.0566 17.2246 33.1637 17.0474 33.444C16.8578 33.7449 16.6311 34.0334 16.4291 34.3302C15.6707 35.4596 14.9617 36.6261 14.3434 37.838C13.1522 40.171 12.2948 42.6936 12.064 45.3151C11.9486 46.6135 11.9898 47.9325 12.1835 49.2226C12.2577 49.7296 12.402 50.2366 12.4226 50.7477C12.435 51.061 12.3814 51.3495 12.3278 51.6504Z" fill="#C3643C"/>
</g>
<defs>
<filter id="filter0_f_344_1473" x="0.646911" y="0.646911" width="96.5397" height="101.05" filterUnits="userSpaceOnUse" color-interpolation-filters="sRGB">
<feFlood flood-opacity="0" result="BackgroundImageFix"/>
<feBlend mode="normal" in="SourceGraphic" in2="BackgroundImageFix" result="shape"/>
<feGaussianBlur stdDeviation="5.67654" result="effect1_foregroundBlur_344_1473"/>
</filter>
</defs>
</svg>
