<svg width="45" height="45" viewBox="0 0 45 45" fill="none" xmlns="http://www.w3.org/2000/svg">
<path d="M34.2686 23.7593C34.2686 21.9033 33.1873 20.172 31.4513 19.158C32.0206 18.3407 32.3266 17.3967 32.3266 16.4287C32.3266 14.3293 30.9233 12.468 28.7759 11.6407C28.7986 11.4607 28.8099 11.2827 28.8099 11.1067C28.8106 8.29133 26.2046 6 23.0006 6C19.7966 6 17.1906 8.29133 17.1906 11.1067C17.1906 11.2827 17.2019 11.4607 17.2246 11.6407C15.0773 12.4673 13.6739 14.3287 13.6739 16.4287C13.6739 17.3967 13.9806 18.3407 14.5493 19.158C12.8133 20.172 11.7319 21.9033 11.7319 23.7593C11.7319 25.8153 13.0006 27.6567 15.0206 28.614C14.8346 29.1007 14.7399 29.6073 14.7399 30.128C14.7399 32.6987 17.0613 34.8013 19.9559 34.8967V37.3333C19.9559 37.702 20.2539 38 20.6226 38H25.3779C25.7466 38 26.0446 37.702 26.0446 37.3333V34.8967C28.9393 34.8007 31.2606 32.6987 31.2606 30.128C31.2606 29.608 31.1659 29.1013 30.9799 28.614C32.9999 27.656 34.2686 25.8153 34.2686 23.7593ZM20.4119 26.6593C20.2986 26.7333 20.1719 26.7693 20.0453 26.7693C19.8286 26.7693 19.6159 26.664 19.4879 26.47L17.7179 23.788C17.5153 23.4807 17.5999 23.0673 17.9073 22.864C18.2153 22.6627 18.6286 22.746 18.8313 23.0533L20.6013 25.7353C20.8039 26.0427 20.7193 26.4567 20.4119 26.6593ZM20.4119 19.708C20.2986 19.782 20.1719 19.818 20.0453 19.818C19.8286 19.818 19.6159 19.7127 19.4879 19.5187L17.7179 16.8367C17.5153 16.5293 17.5999 16.116 17.9073 15.9127C18.2153 15.7107 18.6286 15.7953 18.8313 16.102L20.6013 18.784C20.8039 19.0913 20.7193 19.5047 20.4119 19.708ZM23.6673 32.2213C23.6673 32.59 23.3693 32.888 23.0006 32.888C22.6319 32.888 22.3339 32.59 22.3339 32.2213V13.4533C22.3339 13.0847 22.6319 12.7867 23.0006 12.7867C23.3693 12.7867 23.6673 13.0847 23.6673 13.4533V32.2213ZM28.2833 23.788L26.5133 26.47C26.3853 26.664 26.1726 26.7693 25.9559 26.7693C25.8299 26.7693 25.7026 26.7333 25.5893 26.6593C25.2819 26.456 25.1973 26.0427 25.3999 25.7353L27.1699 23.0533C27.3733 22.746 27.7859 22.6627 28.0939 22.864C28.4013 23.0673 28.4859 23.4807 28.2833 23.788ZM28.2833 16.836L26.5133 19.518C26.3853 19.712 26.1726 19.8173 25.9559 19.8173C25.8299 19.8173 25.7026 19.7813 25.5893 19.7073C25.2819 19.504 25.1973 19.0907 25.3999 18.7833L27.1699 16.1013C27.3733 15.7947 27.7859 15.71 28.0939 15.912C28.4013 16.1153 28.4859 16.5287 28.2833 16.836Z" fill="#352817"/>
</svg>
