<svg width="30" height="30" viewBox="0 0 30 30" fill="none" xmlns="http://www.w3.org/2000/svg">
<path d="M14.5 24.75C8.85 24.75 4.25 20.15 4.25 14.5C4.25 8.85 8.85 4.25 14.5 4.25C20.15 4.25 24.75 8.85 24.75 14.5C24.75 20.15 20.15 24.75 14.5 24.75ZM14.5 5.75C9.67 5.75 5.75 9.68 5.75 14.5C5.75 19.32 9.67 23.25 14.5 23.25C19.33 23.25 23.25 19.32 23.25 14.5C23.25 9.68 19.33 5.75 14.5 5.75Z" fill="#292D32"/>
<path d="M24.9999 25.75C24.8099 25.75 24.6199 25.68 24.4699 25.53L22.4699 23.53C22.1799 23.24 22.1799 22.76 22.4699 22.47C22.7599 22.18 23.2399 22.18 23.5299 22.47L25.5299 24.47C25.8199 24.76 25.8199 25.24 25.5299 25.53C25.3799 25.68 25.1899 25.75 24.9999 25.75Z" fill="#292D32"/>
</svg>
