<svg width="24" height="25" viewBox="0 0 24 25" fill="none" xmlns="http://www.w3.org/2000/svg">
<path d="M16.25 23.1667C17.2165 23.1667 18 22.3832 18 21.4167C18 20.4502 17.2165 19.6667 16.25 19.6667C15.2835 19.6667 14.5 20.4502 14.5 21.4167C14.5 22.3832 15.2835 23.1667 16.25 23.1667Z" fill="white"/>
<path d="M8.25 23.1667C9.2165 23.1667 10 22.3832 10 21.4167C10 20.4502 9.2165 19.6667 8.25 19.6667C7.2835 19.6667 6.5 20.4502 6.5 21.4167C6.5 22.3832 7.2835 23.1667 8.25 23.1667Z" fill="white"/>
<path d="M4.84 4.60675L4.64 7.05675C4.6 7.52675 4.97 7.91675 5.44 7.91675H20.75C21.17 7.91675 21.52 7.59675 21.55 7.17675C21.68 5.40675 20.33 3.96675 18.56 3.96675H6.27C6.17 3.52675 5.97 3.10675 5.66 2.75675C5.16 2.22675 4.46 1.91675 3.74 1.91675H2C1.59 1.91675 1.25 2.25675 1.25 2.66675C1.25 3.07675 1.59 3.41675 2 3.41675H3.74C4.05 3.41675 4.34 3.54675 4.55 3.76675C4.76 3.99675 4.86 4.29675 4.84 4.60675Z" fill="white"/>
<path d="M20.5101 9.41675H5.17005C4.75005 9.41675 4.41005 9.73675 4.37005 10.1467L4.01005 14.4967C3.87005 16.2067 5.21005 17.6667 6.92005 17.6667H18.0401C19.5401 17.6667 20.8601 16.4367 20.9701 14.9367L21.3001 10.2667C21.3401 9.80675 20.9801 9.41675 20.5101 9.41675Z" fill="white"/>
</svg>
