<svg width="103" height="115" viewBox="0 0 103 115" fill="none" xmlns="http://www.w3.org/2000/svg">
<g filter="url(#filter0_f_344_1464)">
<path fill-rule="evenodd" clip-rule="evenodd" d="M10.1773 11.6743C10.1562 14.4553 10.1159 17.2075 10.0776 19.9444C10.0411 22.6832 10.0066 25.4047 10.0008 28.1281C9.99509 30.8496 10.0181 33.5711 10.0948 36.3061C10.1696 39.041 10.2981 41.7894 10.5033 44.5665C10.559 45.3088 10.5743 46.0702 10.5743 46.8393C10.5743 47.6064 10.559 48.3851 10.5532 49.1619C10.5494 49.9367 10.5513 50.7115 10.5896 51.4768C10.6261 52.2401 10.6951 52.9938 10.8236 53.7265C10.9445 54.4208 11.1554 55.0978 11.4163 55.7633C11.6771 56.4288 12.3675 56.6686 12.6898 57.3226C13.01 57.9766 12.9621 59.0487 13.267 59.7104C13.572 60.3701 13.8501 61.0395 14.0611 61.7223C14.6268 63.5615 15.394 65.3682 16.2973 67.1404C17.1988 68.9125 18.2383 70.6502 19.3468 72.3475C20.4554 74.0468 21.633 75.7058 22.8144 77.3226C23.9958 78.9394 25.1792 80.5121 26.3031 82.0406C26.8459 82.779 27.3599 83.5424 27.8604 84.3172C28.361 85.0901 28.8482 85.8745 29.3334 86.6571C29.8186 87.4396 30.3019 88.2202 30.8006 88.9835C31.2973 89.7487 32.1873 90.0786 32.7224 90.7978C33.2613 91.5209 33.5509 92.6007 34.297 93.2144C35.0449 93.8281 35.8696 94.3958 36.7193 94.9328C37.567 95.4679 38.4416 95.9724 39.2854 96.4595C40.1293 96.9467 40.9444 97.4165 41.679 97.8864C42.5075 98.4177 43.3706 98.8953 44.2548 99.3325C45.1389 99.7717 46.0442 100.173 46.9609 100.548C47.8777 100.922 48.804 101.273 49.7304 101.615C50.6587 101.954 51.585 102.284 52.4999 102.62C52.893 102.764 53.2728 102.931 53.6429 103.111C54.015 103.289 54.3794 103.481 54.7438 103.671C55.1082 103.859 55.4745 104.047 55.8466 104.219C56.2206 104.392 56.6004 104.551 56.9955 104.68C57.6993 104.912 58.3955 104.996 59.086 105C59.7783 105.002 60.465 104.921 61.1554 104.818C61.8439 104.716 62.5344 104.593 63.2306 104.513C63.9287 104.432 64.6307 104.394 65.3441 104.457C66.4872 104.563 67.5727 104.668 68.6276 104.751C69.6824 104.831 70.7085 104.885 71.7327 104.885C72.7588 104.883 73.7829 104.825 74.8378 104.682C75.8907 104.538 76.9743 104.31 78.1174 103.964C79.1761 103.644 80.2885 103.237 81.4143 102.758C82.5382 102.278 83.6717 101.724 84.7707 101.109C85.8677 100.495 86.9302 99.8178 87.9084 99.0947C88.8865 98.3697 89.7841 97.5968 90.5513 96.7894C91.3261 95.9724 91.8574 94.9961 92.2064 93.9298C92.5555 92.8634 92.7223 91.705 92.7664 90.5236C92.8106 89.3421 92.7319 88.1358 92.5938 86.9735C92.4538 85.8113 92.2544 84.6931 92.053 83.6862C91.8439 82.6333 91.7212 81.5823 91.6234 80.5332C91.5275 79.4841 91.4584 78.4388 91.3587 77.4012C91.257 76.3655 91.1266 75.3356 90.9041 74.3172C90.6817 73.3007 90.371 72.2938 89.9107 71.3042C89.5348 70.4967 89.1282 69.7027 88.7024 68.9164C88.2766 68.13 87.8336 67.3513 87.3848 66.5727C86.9379 65.794 86.4834 65.0172 86.0384 64.2347C85.5915 63.4522 85.1542 62.664 84.7381 61.8642C84.1435 60.725 83.5451 59.6202 82.9391 58.5385C82.333 57.4568 81.7193 56.3962 81.0921 55.3452C80.4669 54.2923 79.8301 53.2489 79.1799 52.1998C78.5279 51.1488 77.8623 50.094 77.1796 49.0199C76.6061 48.1185 76.0902 47.2267 75.5896 46.354C75.089 45.4795 74.6038 44.6241 74.0898 43.7898C73.5739 42.9555 73.0311 42.1442 72.4136 41.3617C71.7979 40.5792 71.1094 39.8255 70.3019 39.1043C69.9874 38.8224 69.6748 38.5366 69.3641 38.2509C69.0515 37.9632 68.7427 37.6736 68.432 37.3859C68.1213 37.0963 67.8125 36.8086 67.4999 36.5228C67.1872 36.237 66.8727 35.9532 66.5562 35.6751C66.0442 35.2263 65.5091 34.837 64.9605 34.4783C64.412 34.1216 63.8501 33.7955 63.2862 33.4753C62.7204 33.155 62.1527 32.8385 61.5946 32.499C61.0346 32.1615 60.4822 31.799 59.949 31.3886C59.3928 30.959 58.875 30.4833 58.3725 29.9904C57.87 29.4975 57.3829 28.9873 56.8842 28.4906C56.3875 27.9919 55.8792 27.5067 55.3384 27.0598C54.7956 26.6149 54.2202 26.2102 53.5854 25.8726C53.0407 25.585 52.5785 25.3299 52.1604 25.0863C51.7442 24.8408 51.3702 24.6049 51.002 24.3537C50.6337 24.1005 50.2713 23.8339 49.8723 23.5232C49.4753 23.2144 49.0438 22.8634 48.5394 22.4473C47.6475 21.7089 46.7097 21.1527 45.7411 20.7096C44.7707 20.2685 43.7695 19.9386 42.7511 19.6548C41.7308 19.3709 40.6932 19.1331 39.6518 18.8703C38.6084 18.6076 37.5612 18.3237 36.5217 17.9459C35.9579 17.7407 35.394 17.6007 34.8282 17.4933C34.2644 17.384 33.6986 17.3111 33.1328 17.2401C32.567 17.1692 31.9993 17.1039 31.4297 17.01C30.8601 16.9179 30.2885 16.799 29.7151 16.6264C29.1838 16.4653 28.6468 16.3675 28.1059 16.2984C27.567 16.2294 27.0281 16.1891 26.493 16.145C25.9579 16.1009 25.4285 16.0529 24.9107 15.9647C24.3948 15.8784 23.8884 15.7518 23.4013 15.5543C22.7741 15.2973 22.2007 15.0288 21.6502 14.7564C21.0998 14.4841 20.5724 14.2117 20.0373 13.9509C19.5022 13.6881 18.9613 13.4388 18.3821 13.2144C17.8048 12.9881 17.1892 12.7886 16.5083 12.6256C15.9291 12.4875 15.3403 12.3782 14.7553 12.2593C14.1704 12.1423 13.5931 12.0176 13.0369 11.8469C12.4807 11.6782 11.9475 11.4634 11.4508 11.168C10.956 10.8707 10.4995 10.4948 10.0987 10" fill="#B4814C"/>
<path fill-rule="evenodd" clip-rule="evenodd" d="M33.1038 59.7103C32.6761 58.9988 32.2158 58.3025 31.8782 57.5411C31.7421 57.24 31.7095 56.9312 31.627 56.6167C31.5829 56.4422 31.5177 56.2811 31.4314 56.1219C31.3546 55.978 31.2626 55.8457 31.159 55.7191C30.8176 55.301 30.5146 54.8983 30.2039 54.4552C30.1253 54.344 29.991 54.2826 29.9066 54.1656C29.7781 53.9815 29.7244 53.7475 29.5863 53.5615C29.4003 53.3141 29.1663 53.0839 28.9937 52.8403C28.9266 52.7425 28.9649 52.6677 28.9055 52.5661C28.8326 52.4433 28.7213 52.3455 28.6485 52.2074C28.5065 51.9447 28.4011 51.7816 28.1978 51.5745C27.609 50.98 27.398 50.0613 26.9818 49.3823C26.8207 49.1177 26.6826 48.7226 26.5273 48.4905C25.9116 47.5546 24.9833 46.7682 24.6726 45.6501C24.5729 45.2895 24.5173 44.9309 24.3504 44.5895C24.0455 43.9604 23.5928 43.3984 23.2112 42.8212C22.3462 41.5151 21.4966 40.1975 20.6795 38.8607C19.6362 37.1518 18.637 33.9086 17.0624 32.731C16.8456 34.3095 18.0309 36.1583 18.4605 37.6869C18.9822 39.5377 19.5652 41.3712 20.2269 43.176C20.8004 44.7448 21.4314 46.2907 22.1065 47.8154C22.3059 48.2642 22.5495 48.5672 22.772 48.9853C22.935 49.296 23.1556 49.5895 23.2879 49.9174C23.4011 50.2013 23.4682 50.4295 23.6792 50.6654C23.9151 50.932 24.0397 51.2753 24.243 51.5783C24.3792 51.7855 24.5441 52.1058 24.6266 52.3743C24.7666 52.8307 25.0984 53.2143 25.2576 53.69C25.365 54.0083 25.4667 54.3325 25.5721 54.6547C25.7774 55.2876 26.0861 55.8879 26.3988 56.4882C26.6481 56.9658 26.9089 57.4855 27.2848 57.8595C27.538 58.1108 27.7087 58.4867 27.9062 58.7859C28.146 59.1483 28.2553 59.4955 28.4317 59.8714C28.589 60.207 28.9534 60.3816 29.1126 60.7191C29.197 60.9032 29.1855 61.0375 29.2143 61.2254C29.2756 61.634 29.3715 61.8104 29.6017 62.1403C30.4954 63.4099 30.7428 65.0805 31.8015 66.2465C32.2369 66.726 32.6511 67.1556 33.0175 67.6984C33.5411 68.4752 34.1107 69.2231 34.7609 69.8982C35.8234 71.001 37.0815 71.891 38.2841 72.8403C45.4628 78.5078 50.6066 86.2811 56.2434 93.4867C57.4344 95.0095 58.7137 96.5304 60.3247 97.6274C60.8541 97.9899 61.8437 98.7187 62.5399 98.6171C63.2093 98.5193 62.1467 97.0981 61.9051 96.8411C61.6672 96.586 61.533 96.306 61.2626 96.072C61.0516 95.8879 60.9423 95.6807 60.8099 95.4372C60.6949 95.2262 60.5913 95.0728 60.3707 94.9002C60.1406 94.718 59.8836 94.7141 59.6534 94.5933C59.0435 94.2692 59.0301 93.6804 58.706 93.1683C58.4931 92.8307 58.4298 92.6025 58.1402 92.3417C57.8602 92.0885 57.5821 91.9888 57.3059 91.7644C57.0451 91.5515 56.7344 91.2849 56.5272 91.0202C56.2338 90.6501 56.0938 90.2991 55.7428 89.9826C55.2633 89.5492 54.7839 89.1138 54.3063 88.6784C53.8959 88.3045 53.4969 87.848 53.006 87.5814C52.1045 87.0923 51.5234 86.2849 50.8886 85.4736C49.126 83.2201 47.7183 80.7153 45.9902 78.4349C45.1291 77.3014 44.1951 76.2293 43.2457 75.1706C41.8533 73.6132 40.4264 72.0828 39.1644 70.4142C38.6293 69.7084 38.1978 68.8664 37.5553 68.2546C36.8801 67.6121 36.5157 66.772 36.1494 65.9224C35.9711 65.512 35.7639 65.1418 35.6201 64.7371C35.5683 64.5895 35.6162 64.5243 35.5798 64.3401C35.5127 64.0083 35.2288 63.759 35.1138 63.4502C35.06 63.3064 35.0792 63.1434 35.039 63.0034C34.9757 62.7751 34.8395 62.6313 34.7033 62.4395C34.4828 62.1307 34.4271 61.8258 34.266 61.5035C34.0359 61.0452 33.6485 60.6635 33.3972 60.2128C33.3013 60.044 33.2035 59.8772 33.1038 59.7103Z" fill="#9C7543"/>
<path fill-rule="evenodd" clip-rule="evenodd" d="M75.7451 75.9604C75.327 75.6382 74.8821 75.3582 74.4429 75.0686C74.1187 74.8538 73.7486 74.6562 73.5453 74.311C73.4014 74.0674 73.3497 73.8392 73.1176 73.6512C72.7685 73.3712 72.3907 73.1411 72.0953 72.7901C71.5986 72.1994 71.1441 71.5837 70.5649 71.0563C69.8686 70.4215 69.1744 69.6697 68.3727 69.2017C67.6074 68.7548 67.0512 67.9761 66.2495 67.5926C66.0079 67.4775 65.7451 67.4506 65.4977 67.3586C65.3405 67.2991 65.1947 67.2166 65.0624 67.1131C64.861 66.9558 64.8073 66.741 64.6462 66.5626C64.487 66.3881 64.2568 66.3785 64.0842 66.2328C63.9423 66.1119 63.7697 65.8242 63.5549 65.8952C63.294 65.3639 63.1387 64.9324 62.5767 64.6371C62.2028 64.4395 61.9247 64.2592 61.6082 63.9773C61.3665 63.7625 61.2917 63.4364 61.0213 63.2581C60.7087 63.0509 60.4268 62.9129 60.1468 62.6482C59.9856 62.4967 59.861 62.4756 59.6865 62.372C59.4889 62.255 59.4947 62.1208 59.3719 61.9386C58.8637 61.1906 58.2864 60.4867 57.7839 59.7349C56.5909 57.9455 55.2599 56.1503 53.5184 54.8653C52.7206 54.2765 51.8556 53.8104 51.1019 53.1603C50.3347 52.4948 49.5062 51.9386 48.7045 51.3191C47.9105 50.7073 47.2296 49.965 46.4452 49.3398C45.6493 48.703 44.9588 48.0644 44.2626 47.3202C42.6957 45.6459 41.3205 43.7913 39.8495 42.0364C38.8234 40.8127 37.5576 39.8404 36.4049 38.7452C36.0693 38.4249 35.8199 38.0375 35.4881 37.7172C35.212 37.4468 34.932 37.2147 34.6865 36.9136C34.3221 36.4668 33.9807 36.0007 33.6048 35.5634C33.1617 35.0456 32.6458 34.6083 32.2315 34.0636C31.7329 33.4134 31.3148 32.7019 30.8161 32.0517C30.1698 31.2098 29.4659 30.4138 28.7966 29.5891C27.5921 28.1085 26.1901 26.7813 25.0777 25.2335C24.3969 24.2899 23.7333 23.3271 22.9623 22.4526C22.5461 21.9808 22.08 21.3958 21.5794 21.0103C21.075 20.621 20.538 20.2585 20.0259 19.8768C19.278 19.3206 17.6324 18.4671 18.0236 17.2723C18.039 17.2263 18.0582 17.1783 18.0793 17.1304C18.8925 15.3467 21.2803 17.6923 22.1759 18.308C23.1004 18.9409 24.0018 19.6428 24.8476 20.3774C25.7221 21.1388 26.4414 22.0038 27.1951 22.8783C29.1034 25.0935 30.9638 27.3643 33.0486 29.4165C33.4206 29.7828 33.8138 30.0667 34.0325 30.5327C34.1801 30.8454 34.3451 30.9911 34.6002 31.2193C35.2216 31.7794 35.8315 32.3528 36.4586 32.9052C36.9093 33.3041 37.1989 33.8028 37.502 34.3206C37.7801 34.7982 38.0754 35.3275 38.2998 35.8319C38.5223 36.3306 38.7544 36.6892 39.1283 37.1035C39.3988 37.4027 39.7498 37.4737 40.0106 37.7594C40.2848 38.0644 40.444 38.4748 40.6934 38.8009C40.9254 39.1058 41.1882 39.3494 41.472 39.6083C41.6868 39.8039 41.8671 39.8576 42.1088 39.9976C42.3409 40.1338 42.5154 40.2872 42.7801 40.4042C43.1023 40.5481 43.4782 40.6478 43.7774 40.8396C43.8944 40.9144 43.9826 41.0256 44.1072 41.0793C44.3873 41.1963 44.5963 41.2078 44.8591 41.438C45.0988 41.647 45.3616 41.8599 45.5802 42.0882C45.8871 42.4123 46.1076 42.7575 46.4471 43.0644C46.9975 43.5573 47.2987 44.0905 47.7206 44.6831C48.1828 45.3313 48.9461 45.667 49.3834 46.3325C49.604 46.6681 49.8955 46.9155 50.1947 47.1821C51.4778 48.3233 52.5365 49.6869 53.8157 50.8338C54.0651 51.0582 54.2971 51.3114 54.5522 51.5262C55.0394 51.9405 55.701 52.1438 56.2898 52.3663C56.752 52.5389 57.1356 52.8093 57.5806 53.0145C57.8644 53.1449 58.154 53.2197 58.411 53.4C58.9941 53.8085 59.4179 54.4702 59.8092 55.0475C60.0278 55.3678 60.1352 55.6842 60.329 56.0084C60.7816 56.7621 61.4471 57.3835 61.9016 58.1449C62.1778 58.6091 62.4943 59.0406 62.8836 59.4491C63.4858 60.082 64.2779 60.5538 64.8207 61.2424C65.1007 61.5952 65.3769 61.8829 65.7125 62.1917C65.9235 62.3854 66.1191 62.5849 66.3608 62.7422C66.8153 63.0356 67.0877 63.2792 67.4195 63.7049C67.9296 64.3551 68.6489 64.8116 69.159 65.4598C69.6423 66.0755 70.1333 66.7602 70.7183 67.278C70.9734 67.5043 71.2112 67.7671 71.495 67.9455C71.5526 67.9148 71.6101 67.9167 71.6638 67.9512C71.8134 68.097 71.963 68.2408 72.1164 68.3808C72.525 68.7625 73.0812 68.96 73.5184 69.3053C73.8982 69.6064 74.2664 69.8864 74.6788 70.1415C75.5572 70.6861 76.1076 71.5818 76.6197 72.4602C77.36 73.7299 78.1118 75.011 78.9902 76.1925C79.4467 76.8062 79.7612 77.6846 79.9684 78.4134C80.0719 78.7682 80.1276 79.1441 80.2695 79.4874C80.3577 79.7023 80.4498 79.8595 80.469 80.1012C80.4939 80.41 80.6876 81.1925 80.4364 81.4322C80.0547 81.2289 79.556 80.7475 79.3067 80.3985C78.7812 79.662 78.2442 78.8891 77.7532 78.1296C77.2028 77.2761 76.5545 76.5837 75.7451 75.9604Z" fill="#9C7543"/>
</g>
<defs>
<filter id="filter0_f_344_1464" x="0" y="0" width="102.779" height="115" filterUnits="userSpaceOnUse" color-interpolation-filters="sRGB">
<feFlood flood-opacity="0" result="BackgroundImageFix"/>
<feBlend mode="normal" in="SourceGraphic" in2="BackgroundImageFix" result="shape"/>
<feGaussianBlur stdDeviation="5" result="effect1_foregroundBlur_344_1464"/>
</filter>
</defs>
</svg>
