<svg width="47" height="44" viewBox="0 0 47 44" fill="none" xmlns="http://www.w3.org/2000/svg">
<g filter="url(#filter0_f_344_1463)">
<path fill-rule="evenodd" clip-rule="evenodd" d="M34.7419 13.6304C34.6691 13.5255 34.573 13.444 34.5031 13.3362C34.2875 12.9983 34.1157 12.6809 33.772 12.4391C33.5069 12.2527 33.1661 12.1508 32.8807 11.976C32.5516 11.7808 32.3389 11.5478 32.0768 11.2828C31.905 11.1109 31.7069 11.0003 31.535 10.8371C31.4331 10.741 31.3661 10.6216 31.2729 10.5226C31.0836 10.3245 30.8069 10.1264 30.5389 10.0507C30.2651 9.97499 29.9098 10.0332 29.6243 10.0332C29.336 10.0332 28.9195 9.96043 28.6369 10.0303C28.5175 10.0595 28.4593 10.1061 28.3311 10.1235C28.1476 10.1527 27.9321 10.1235 27.7486 10.1235C27.3466 10.1235 26.968 10.0886 26.5922 10.2226C26.1408 10.3828 25.6718 10.5313 25.2087 10.6595C24.7573 10.7847 24.4048 11.108 23.9563 11.242C23.7728 11.2973 23.598 11.2973 23.4233 11.3876C23.2864 11.4605 23.1669 11.5624 23.0242 11.6323C22.8378 11.7197 22.6397 11.743 22.4504 11.8158C22.2058 11.9119 22.0106 12.1042 21.7922 12.2411C21.5475 12.3925 21.3349 12.576 21.1018 12.7508C20.9533 12.8614 20.8222 12.9838 20.6416 13.042C20.4611 13.1032 20.2863 13.1935 20.097 13.2314C19.8057 13.2867 19.5931 13.1964 19.3076 13.4032C19.229 13.4615 19.162 13.5663 19.0746 13.6042C18.9319 13.6712 18.7746 13.6886 18.629 13.7731C18.4717 13.8634 18.2736 13.9158 18.1251 14.009C18.0785 14.0382 18.0523 14.0819 18.0086 14.1139C17.8892 14.2013 17.7639 14.2217 17.627 14.2741C17.3154 14.3935 16.9833 14.4605 16.6804 14.5945C16.5581 14.6469 16.4707 14.7226 16.3484 14.7809C16.0454 14.9236 15.6843 14.9761 15.4105 15.177C15.259 15.2848 15.1076 15.4013 14.9707 15.5265C14.7377 15.7363 14.4726 15.9285 14.2309 16.1382C14.1231 16.2343 14.0532 16.3567 13.9629 16.4586C13.8376 16.5955 13.7503 16.7382 13.6367 16.8839C13.4503 17.1227 13.2056 17.3353 13.0221 17.5858C12.7454 17.9586 12.3493 18.2324 12.1163 18.6344C11.8512 19.0917 11.624 19.581 11.4085 20.0645C10.9628 21.0606 10.5929 22.0975 10.3424 23.1607C9.94631 24.8471 9.84145 26.6355 10.3104 28.319C10.6483 29.5219 11.056 30.8268 11.7551 31.8637C12.0959 32.3676 12.0172 32.3822 12.5998 32.6502C13.1502 32.9036 13.7648 33.2065 14.2775 33.5414C15.0901 34.0657 15.5386 33.99 16.5639 33.9987C17.9532 34.0104 19.5436 33.9492 20.8659 33.5269C22.7912 32.9094 24.4339 32.0909 26.132 31.0045C26.4204 30.821 26.7087 30.655 26.9709 30.4453C27.0554 30.3812 27.1311 30.3637 27.2185 30.3142C27.5651 30.1249 27.9554 29.9326 28.2816 29.6967C28.4534 29.5715 28.5932 29.42 28.736 29.2627C28.9195 29.0588 29.1612 28.919 29.3622 28.7268C29.8078 28.3103 30.2651 27.8588 30.7486 27.4918C31.0545 27.2588 31.4011 26.9501 31.6195 26.6297C31.8351 26.3122 32.1671 26.1025 32.3914 25.7937C32.5399 25.5898 32.6593 25.3539 32.8108 25.1588C32.9244 25.0102 33.07 24.8588 33.1924 24.7189C33.2856 24.6112 33.2797 24.4422 33.3526 24.3461C33.4021 24.2762 33.5069 24.2238 33.5739 24.1539C33.6933 24.0286 33.8215 23.8859 33.9351 23.7548C34.0953 23.5626 34.2176 23.4345 34.3341 23.2014C34.4594 22.9568 34.5031 22.7296 34.7011 22.5461C34.9837 22.2869 35.0565 21.8878 35.2371 21.55C35.438 21.1742 35.6041 20.7927 35.7846 20.4111C35.8895 20.1868 36.0584 19.9946 36.1575 19.7674C36.4662 19.0684 36.3584 18.2295 36.3584 17.4897C36.3613 17.3062 36.3992 17.0761 36.3468 16.8984C36.2885 16.7033 36.0992 16.5693 36.0439 16.3712C36.0118 16.2635 36.0147 16.1499 35.9856 16.0392C35.9244 15.8207 35.8225 15.6052 35.7584 15.3897C35.639 14.9964 35.3244 14.6935 35.1118 14.3382C34.9807 14.1256 34.8934 13.91 34.7798 13.6916C34.7681 13.6712 34.7535 13.6508 34.7419 13.6304Z" fill="#E3A161"/>
</g>
<defs>
<filter id="filter0_f_344_1463" x="0" y="0" width="46.3765" height="44" filterUnits="userSpaceOnUse" color-interpolation-filters="sRGB">
<feFlood flood-opacity="0" result="BackgroundImageFix"/>
<feBlend mode="normal" in="SourceGraphic" in2="BackgroundImageFix" result="shape"/>
<feGaussianBlur stdDeviation="5" result="effect1_foregroundBlur_344_1463"/>
</filter>
</defs>
</svg>
